<?xml version="1.0" encoding="UTF-8"?>
<!DOCTYPE svg PUBLIC "-//W3C//DTD SVG 1.1//EN" "http://www.w3.org/Graphics/SVG/1.1/DTD/svg11.dtd">
<!-- Creator: CorelDRAW X8 -->
<svg xmlns="http://www.w3.org/2000/svg" xml:space="preserve" width="59.002mm" height="15.442mm" version="1.1" style="shape-rendering:geometricPrecision; text-rendering:geometricPrecision; image-rendering:optimizeQuality; fill-rule:evenodd; clip-rule:evenodd"
viewBox="0 0 5900200 1544200"
 xmlns:xlink="http://www.w3.org/1999/xlink">
 <defs>
  <style type="text/css">
   <![CDATA[
    .fil0 {fill:#D8594E}
    .fil1 {fill:#DDE5EC}
    .fil2 {fill:#D8594E;fill-rule:nonzero}
   ]]>
  </style>
 </defs>
 <g id="Слой_x0020_1">
  <metadata id="CorelCorpID_0Corel-Layer"/>
  <g id="_2448345151408">
   <path class="fil0" d="M161380 778120c110,20060 -760,35140 -2500,55480 -2170,25360 -15300,51000 -55390,82790l-82880 65730c-20490,16240 -26760,47910 -13940,70350l115370 201890c12820,22450 43290,33120 67680,23710l89750 -34580c54250,-20910 84210,-20380 108680,-8660 21230,10180 36320,20130 54790,30930 18460,10800 38030,22520 59860,37610 20930,14480 36680,38590 44380,89180l15910 104570c14510,23620 28310,32960 54160,32960l232530 70c25850,0 41200,-10440 54180,-32930l14520 -95080c8780,-57470 24110,-83230 46430,-98640 19370,-13380 36080,-21850 53770,-31960 17700,-10120 35750,-19740 57850,-30040 23070,-10750 51840,-12160 99380,6760l98290 39100c24300,9660 54870,-680 67940,-22990l117530 -200630c13070,-22310 7140,-54040 -13180,-70500l-74710 -60570c-45160,-36610 -59640,-62850 -61670,-89900 -1790,-23920 -620,-41460 -530,-64200 90,-22740 -60,-47890 1970,-76680 1790,-25390 14520,-51230 54130,-83610l81890 -66970c20240,-16550 26040,-48300 12870,-70550l-118380 -200130c-13160,-22260 -43790,-32460 -68040,-22700l-89210 35940c-53930,21720 -83900,21640 -108540,10290 -20700,-9540 -40180,-21740 -56860,-31240 -16670,-9510 -32460,-19430 -50940,-32190 -20940,-14470 -36690,-38590 -44400,-89170l-15950 -104570c-3930,-25850 -28320,-47000 -54170,-47000l-232520 0c-25850,0 -50230,21150 -54170,47000l-14500 95080c-8760,57470 -24080,83230 -46400,98660 -25770,17810 -33110,20580 -55240,32880 -22120,12290 -32430,18820 -60700,32320 -22960,10970 -51720,12660 -99440,-5810l-98650 -38160c-24390,-9430 -54870,1200 -67720,23640l-115610 201740c-12860,22430 -6620,54100 13850,70370l75280 59850c45510,36180 60240,62290 62530,89320 2230,26470 610,51180 720,71240z"/>
   <path class="fil1" d="M557940 1463290l0 -339770c-125170,-64420 -210780,-194890 -210780,-345360 0,-150320 85450,-280690 210430,-345170l350 337490c0,3790 1150,8100 5700,9750l164340 59560c5150,1860 10510,1960 15410,80l157350 -60320c3950,-1520 6210,-5410 6210,-11030l0 -338800c132890,65420 216530,200370 216530,348440 0,152760 -88240,284910 -216530,348250l0 351230 -2990 19580c-3940,25840 -28330,46990 -54180,46990l-232530 -70c-25840,-10 -50220,-21160 -54150,-47020l-5160 -33830z"/>
   <path class="fil2" d="M2300460 845970l-180700 0 -40230 137630 -90350 0 146110 -463730c4230,-15530 14820,-23290 31760,-23290l86110 0c16940,0 27530,7760 31760,23290l146110 463730 -90340 0 -40230 -137630zm-21180 -72700l-48700 -167990c-6590,-25410 -10120,-39290 -10590,-41650l-19060 0 -11290 41650 -48700 167990 138340 0zm518790 -283750l0 494080 -67770 0 -7050 -47290c-40000,37180 -84700,55760 -134110,55760 -42350,0 -73170,-15410 -92470,-46230 -19290,-30820 -28930,-76580 -28930,-137280 0,-66350 10700,-113050 32110,-140110 21410,-27060 54940,-40590 100580,-40590 44230,0 82590,10120 115050,30360 -2350,-18830 -3530,-41880 -3530,-69180l0 -99520 86120 0zm-86120 393860l0 -171520c-37640,-9410 -66340,-14120 -86110,-14120 -26820,0 -45170,7180 -55050,21530 -9880,14350 -14820,43880 -14820,88580 0,43760 4820,73290 14460,88580 9650,15300 26470,22940 50470,22940 16000,0 29880,-2470 41640,-7410 11770,-4940 28240,-14470 49410,-28580zm251980 -245630l4940 50820c46120,-40470 91290,-60710 135520,-60710 46590,0 76000,19300 88230,57880 43290,-38580 87060,-57880 131290,-57880 30580,0 53880,8240 69870,24710 16000,16470 24000,40230 24000,71290l0 259740 -83990 0 0 -233630c-470,-17880 -3760,-30580 -9880,-38110 -6120,-7530 -17180,-11290 -33180,-11290 -13640,0 -26460,2820 -38460,8470 -12000,5640 -30240,16700 -54710,33170l0 241390 -82580 0 0 -233630c470,-18350 -2700,-31170 -9530,-38460 -6820,-7300 -18000,-10940 -33520,-10940 -13180,0 -25880,2820 -38120,8470 -12230,5640 -30350,16470 -54350,32460l0 242100 -85400 0 0 -345850 69870 0zm573140 -150350l39520 0c16470,0 24710,8240 24710,24710l0 38820c0,16470 -8240,24700 -24710,24700l-39520 0c-16470,0 -24710,-8230 -24710,-24700l0 -38820c0,-16470 8240,-24710 24710,-24710zm62820 496200l-85410 0 0 -345850 85410 0 0 345850zm170810 -345850l5640 50820c53650,-40470 103530,-60710 149640,-60710 30580,0 54110,8240 70580,24710 16470,16470 24710,40230 24710,71290l0 259740 -86110 0 0 -233630c0,-19290 -2590,-32350 -7770,-39170 -5180,-6820 -14820,-10230 -28940,-10230 -16000,0 -32350,3290 -49050,9880 -16710,6590 -38240,17410 -64590,32470l0 240680 -86110 0 0 -345850 72000 0zm350790 345850l0 -487020c41880,-4230 100700,-6350 176460,-6350 64000,0 107880,10940 131640,32820 23760,21880 35640,63170 35640,123870 0,60700 -11290,101990 -33880,123880 -22580,21880 -63290,32820 -122110,32820 -34820,0 -67990,-1890 -99520,-5650l0 185630 -88230 0zm88230 -251980l86110 0c31060,-470 52230,-6470 63530,-18000 11290,-11520 16940,-33760 16940,-66700 0,-32940 -5650,-55170 -16940,-66700 -11300,-11530 -32470,-17290 -63530,-17290l-86110 0 0 168690zm332450 -26110l-8470 -60700c60700,-11300 118340,-16950 172930,-16950 44700,0 77520,8950 98460,26830 20940,17880 31410,49170 31410,93870l0 235040 -67760 0 -9170 -52930c-36240,40460 -80240,60700 -132000,60700 -32460,0 -58820,-8820 -79050,-26470 -20230,-17650 -30350,-42230 -30350,-73760l0 -35290c0,-27760 8940,-49170 26820,-64230 17880,-15060 43060,-22590 75530,-22590l129870 0 0 -21170c-470,-19770 -4940,-32940 -13410,-39530 -8470,-6590 -25180,-9880 -50120,-9880 -36230,0 -84460,2350 -144690,7060zm61400 160930l0 13410c0,28230 15060,42350 45180,42350 34350,0 68230,-13650 101640,-40940l0 -53640 -110110 0c-13650,470 -23180,4000 -28590,10580 -5410,6590 -8120,16000 -8120,28240zm398100 -228690l5640 50820c53640,-40470 103530,-60710 149640,-60710 30580,0 54110,8240 70580,24710 16470,16470 24700,40230 24700,71290l0 259740 -86100 0 0 -233630c0,-19290 -2590,-32350 -7770,-39170 -5180,-6820 -14820,-10230 -28940,-10230 -16000,0 -32350,3290 -49060,9880 -16700,6590 -38230,17410 -64580,32470l0 240680 -86110 0 0 -345850 72000 0zm561130 208920l-141170 0c3300,30120 11770,50230 25410,60350 13650,10120 36000,15180 67060,15180 35290,0 76700,-2830 124230,-8470l7760 55050c-32470,15530 -80000,23290 -142580,23290 -62580,0 -107050,-13880 -133400,-41640 -26350,-27760 -39530,-74580 -39530,-140460 0,-67290 12940,-114460 38820,-141520 25880,-27060 68700,-40590 128460,-40590 55060,0 95050,10000 119990,30000 24950,20000 37410,50000 37410,90000 0,65870 -30820,98810 -92460,98810zm-142580 -59990l118580 0c20710,0 31060,-13410 31060,-40240 0,-18820 -4940,-31990 -14820,-39520 -9890,-7530 -27770,-11290 -53650,-11290 -30110,0 -50930,6230 -62460,18700 -11530,12470 -17770,36590 -18710,72350zm399500 -297160l0 386090c-470,13650 2710,23770 9530,30350 6820,6590 17290,9880 31410,9880l29650 0 9880 63530c-16000,8000 -40470,12000 -73410,12000 -28700,0 -51410,-8240 -68110,-24710 -16710,-16460 -25060,-39760 -25060,-69870l0 -407270 86110 0z"/>
  </g>
 </g>
</svg>
