<?xml version="1.0" encoding="UTF-8"?>
<!DOCTYPE svg PUBLIC "-//W3C//DTD SVG 1.1//EN" "http://www.w3.org/Graphics/SVG/1.1/DTD/svg11.dtd">
<!-- Creator: CorelDRAW X8 -->
<svg xmlns="http://www.w3.org/2000/svg" xml:space="preserve" width="50.603mm" height="15.617mm" version="1.1" style="shape-rendering:geometricPrecision; text-rendering:geometricPrecision; image-rendering:optimizeQuality; fill-rule:evenodd; clip-rule:evenodd"
viewBox="0 0 5060300 1561700"
 xmlns:xlink="http://www.w3.org/1999/xlink">
 <defs>
  <style type="text/css">
   <![CDATA[
    .fil2 {fill:#2BB472}
    .fil3 {fill:#34B4DB}
    .fil4 {fill:#A72B1D}
    .fil1 {fill:#1737BA;fill-rule:nonzero}
    .fil6 {fill:#2BB472;fill-rule:nonzero}
    .fil7 {fill:#34B4DB;fill-rule:nonzero}
    .fil5 {fill:#A72B1D;fill-rule:nonzero}
    .fil0 {fill:#F09400;fill-rule:nonzero}
   ]]>
  </style>
 </defs>
 <g id="Слой_x0020_1">
  <metadata id="CorelCorpID_0Corel-Layer"/>
  <g id="_2448282150208">
   <g>
    <path class="fil0" d="M780660 1561700c215080,0 410120,-87440 552020,-228650 141210,-141210 228650,-336500 228650,-552010l-316150 0c0,128260 -52090,244510 -135740,328780 -84010,83830 -200330,135730 -328780,135730l0 316150z"/>
    <path class="fil1" d="M1212190 607400c-23460,-58750 -59000,-111520 -102870,-155460 -32550,-32480 -70510,-60370 -111520,-82150l-552890 349140 167910 266730 599370 -378260z"/>
    <path class="fil2" d="M180 780660l0 0 316150 0c0,-128450 51910,-244760 136050,-328470 83950,-83950 200200,-136040 328470,-136040l0 -316150c-215520,0 -410810,87440 -552020,229270 -141210,141270 -228650,336310 -228650,551390z"/>
    <path class="fil3" d="M781030 0c215090,0 410130,87440 551710,228960 60550,60550 111210,130870 149300,208360l-269720 170020c-23470,-58750 -58630,-111520 -102500,-155460 -84770,-83270 -201580,-134610 -328790,-135730l0 -316150z"/>
    <path class="fil4" d="M780720 1245360l0 316150c-215510,0 -410800,-87440 -552010,-228650 -140900,-140890 -228530,-336990 -228710,-552010l316210 0c0,128260 52090,244520 136040,328470 83960,83950 200210,136040 328470,136040z"/>
   </g>
   <g>
    <path class="fil0" d="M2411320 918090l4240 67060c-42830,3760 -114350,5640 -214580,5640 -31990,0 -57290,-8230 -75880,-24700 -18580,-16470 -28110,-39060 -28580,-67760l0 -304920c470,-28700 10000,-51290 28580,-67760 18590,-16470 43890,-24700 75880,-24700 100230,0 171750,1880 214580,5640l-4240 67760 -190580 0c-12700,0 -21760,3060 -27170,9180 -5410,6120 -8110,16700 -8110,31760l0 85410 199740 0 0 67760 -199740 0 0 108690c0,15060 2700,25650 8110,31770 5410,6110 14470,9170 27170,9170l190580 0zm1840810 -212450l0 175750c0,15060 3060,25530 9170,31410 6120,5880 16940,8820 32470,8820l47290 0 9180 63530c-24940,8000 -54590,12000 -88940,12000 -30110,0 -53290,-8710 -69520,-26120 -16240,-17410 -24350,-42350 -24350,-74820l0 -190570 -62820 0 0 -58590 62110 -3530 0 -99520 85410 0 0 99520 101640 0 0 62120 -101640 0z"/>
    <path class="fil5" d="M2565190 643520l4940 50820c46120,-40460 91290,-60700 135520,-60700 46590,0 76000,19290 88230,57880 43290,-38590 87050,-57880 131290,-57880 30580,0 53870,8240 69870,24710 16000,16470 24000,40230 24000,71290l0 259740 -83990 0 0 -233630c-470,-17880 -3770,-30580 -9880,-38110 -6120,-7530 -17180,-11300 -33180,-11300 -13650,0 -26470,2830 -38470,8470 -12000,5650 -30230,16710 -54700,33180l0 241390 -82580 0 0 -233630c470,-18350 -2710,-31170 -9530,-38470 -6820,-7290 -18000,-10940 -33530,-10940 -13170,0 -25880,2830 -38110,8470 -12240,5650 -30350,16470 -54350,32470l0 242100 -85410 0 0 -345860 69880 0zm2010210 -9880c62110,0 105990,13890 131630,41650 25650,27760 38470,74810 38470,141160 0,66350 -12820,113290 -38470,140820 -25640,27520 -69520,41290 -131630,41290 -62590,0 -106820,-13770 -132700,-41290 -25880,-27530 -38820,-74470 -38820,-140820 0,-66350 12940,-113400 38820,-141160 25880,-27760 70110,-41650 132700,-41650zm0 68470c-32000,0 -53650,7880 -64940,23640 -11290,15770 -16940,46000 -16940,90700 0,44230 5650,74230 16940,90000 11290,15760 32940,23640 64940,23640 31050,0 52350,-7880 63880,-23640 11520,-15770 17290,-45770 17290,-90000 0,-44700 -5770,-74930 -17290,-90700 -11530,-15760 -32830,-23640 -63880,-23640z"/>
    <path class="fil6" d="M3425600 643520l0 345860 -67760 0 -6360 -46580c-48930,37170 -97160,55760 -144690,55760 -63990,0 -95990,-32000 -95990,-96000l0 -259040 86110 0 0 233630c-470,18360 2350,31060 8470,38120 6120,7060 17410,10590 33880,10590 23530,0 57170,-12710 100930,-38120l0 -244220 85410 0zm1634700 -9880l-9170 80470 -24700 0c-24470,0 -62590,10350 -114350,31050l0 244220 -86110 0 0 -345860 67050 0 7770 50820c49410,-40460 96930,-60700 142570,-60700l16940 0z"/>
    <path class="fil7" d="M3608410 495300l0 386090c-470,13640 2700,23760 9530,30350 6820,6590 17290,9880 31410,9880l29640 0 9880 63530c-16000,8000 -40470,12000 -73400,12000 -28710,0 -51410,-8240 -68120,-24710 -16700,-16470 -25050,-39760 -25050,-69880l0 -407260 86110 0z"/>
    <path class="fil1" d="M3749570 711280l-8470 -60700c60710,-11290 118350,-16940 172930,-16940 44710,0 77530,8940 98470,26820 20940,17880 31410,49180 31410,93880l0 235040 -67770 0 -9170 -52940c-36230,40470 -80230,60710 -131990,60710 -32470,0 -58820,-8830 -79050,-26470 -20240,-17650 -30350,-42230 -30350,-73760l0 -35290c0,-27770 8940,-49180 26820,-64230 17880,-15060 43050,-22590 75520,-22590l129870 0 0 -21180c-470,-19760 -4940,-32930 -13410,-39520 -8470,-6590 -25170,-9880 -50110,-9880 -36230,0 -84470,2350 -144700,7050zm61410 160930l0 13410c0,28240 15060,42350 45170,42350 34350,0 68240,-13640 101640,-40930l0 -53650 -110110 0c-13640,470 -23170,4000 -28580,10590 -5410,6590 -8120,16000 -8120,28230z"/>
   </g>
  </g>
 </g>
</svg>
