<svg xmlns="http://www.w3.org/2000/svg" xml:space="preserve" width="11.9498cm" height="2.7097cm" version="1.1" style="shape-rendering:geometricPrecision; text-rendering:geometricPrecision; image-rendering:optimizeQuality; fill-rule:evenodd; clip-rule:evenodd" viewBox="0 0 11.9498 2.7097" xmlns:xlink="http://www.w3.org/1999/xlink">
 <defs>
  <style type="text/css">
   <![CDATA[
    .fil1 {fill:#85CBF8}
    .fil0 {fill:#8D6C9F}
    .fil2 {fill:#9FDDFF}
    .fil3 {fill:#85CBF8;fill-rule:nonzero}
    .fil4 {fill:#8D6C9F;fill-rule:nonzero}
   ]]>
  </style>
 </defs>
  <g>
   <path class="fil0" d="M1.30044 1.48924c-0.01998,0 -0.03619,0.01621 -0.03619,0.03619l0 0.07239c0,0.01998 0.01621,0.0362 0.03619,0.0362 0.01998,0 0.0362,-0.01622 0.0362,-0.0362l0 -0.07239c0,-0.01998 -0.01622,-0.03619 -0.0362,-0.03619zm-0.18097 0c-0.01998,0 -0.0362,0.01621 -0.0362,0.03619l0 0.07239c0,0.01998 0.01622,0.0362 0.0362,0.0362 0.01998,0 0.03619,-0.01622 0.03619,-0.0362l0 -0.07239c0,-0.01998 -0.01621,-0.03619 -0.03619,-0.03619zm-0.18097 0c-0.01999,0 -0.0362,0.01621 -0.0362,0.03619l0 0.07239c0,0.01998 0.01621,0.0362 0.0362,0.0362 0.01998,0 0.03619,-0.01622 0.03619,-0.0362l0 -0.07239c0,-0.01998 -0.01622,-0.03619 -0.03619,-0.03619zm-0.18098 0c-0.01998,0 -0.0362,0.01621 -0.0362,0.03619l0 0.07239c0,0.01998 0.01622,0.0362 0.0362,0.0362 0.01998,0 0.0362,-0.01622 0.0362,-0.0362l0 -0.07239c0,-0.01998 -0.01622,-0.03619 -0.0362,-0.03619zm-0.18098 0c-0.01998,0 -0.03619,0.01621 -0.03619,0.03619l0 0.07239c0,0.01998 0.01621,0.0362 0.03619,0.0362 0.01998,0 0.0362,-0.01622 0.0362,-0.0362l0 -0.07239c0,-0.01998 -0.01622,-0.03619 -0.0362,-0.03619z"/>
   <path class="fil1" d="M0.06982 1.96582c-0.01998,0 -0.0362,-0.01622 -0.0362,-0.0362l0 -1.84594c0,-0.01998 0.01622,-0.0362 0.0362,-0.0362l0.28955 0.00001c0.01999,0 0.0362,0.01621 0.0362,0.03619l0 1.64687c0,0.00999 0.00811,0.0181 0.0181,0.0181l0.85058 0c0.01998,0 0.03619,0.01621 0.03619,0.03619l0 0.14478c0,0.01998 -0.01621,0.0362 -0.03619,0.0362l-1.19443 0z"/>
   <path class="fil2" d="M0.03362 0.07177l0 1.84866c0.10508,-0.00083 0.19002,-0.08611 0.19002,-0.19136l0 -1.4659c0,-0.10529 -0.08494,-0.19057 -0.19002,-0.1914z"/>
   <path class="fil0" d="M0.2146 0.44563c-0.02002,0 -0.0362,-0.01622 -0.0362,-0.0362l0 -0.14478c0,-0.01998 0.01618,-0.03619 0.0362,-0.03619 0.02001,0 0.03619,0.01621 0.03619,0.03619l0 0.14478c0,0.01998 -0.01618,0.0362 -0.03619,0.0362zm0 0.43434c-0.02002,0 -0.0362,-0.01622 -0.0362,-0.0362l0 -0.28956c0,-0.01998 0.01618,-0.03619 0.0362,-0.03619 0.02001,0 0.03619,0.01621 0.03619,0.03619l0 0.28956c0,0.01998 -0.01618,0.0362 -0.03619,0.0362z"/>
   <g>
    <path class="fil0" d="M0.35937 0.08368l0 1.64687c0,0.02997 0.02433,0.05429 0.0543,0.05429l0.85058 0 0 0.14478 -0.90488 0 -0.07239 0 -0.21716 0 0 -1.84594 0.28955 0 0 0zm0 -0.07239l-0.28955 0c-0.04,0 -0.07239,0.03239 -0.07239,0.07239l0 1.84594c0,0.04 0.03239,0.07239 0.07239,0.07239l0.21716 0 0.07239 0 0.90488 0c0.03999,0 0.07239,-0.03239 0.07239,-0.07239l0 -0.14478c0,-0.03999 -0.0324,-0.07239 -0.07239,-0.07239l-0.83249 0 0 -1.62877c0,-0.03999 -0.03239,-0.07239 -0.07239,-0.07239l0 0z"/>
   </g>
   <path class="fil3" d="M1.59183 1.0333c0.06421,-0.1009 0.14768,-0.18069 0.25041,-0.23985 0.10272,-0.05871 0.21279,-0.08806 0.3302,-0.08806 0.11006,0 0.22013,0.02752 0.3302,0.08255 0.10273,0.04816 0.18894,0.12429 0.25865,0.22885 0.06971,0.10502 0.10457,0.22701 0.10457,0.36689 0,0.10089 -0.02385,0.205 -0.07109,0.3114 -0.04769,0.10685 -0.12245,0.19766 -0.22472,0.27333 -0.0532,0.03852 -0.10731,0.06741 -0.16326,0.08668 -0.05595,0.01926 -0.11649,0.02889 -0.18207,0.02889 -0.10778,0 -0.20454,-0.01514 -0.28939,-0.0454 -0.08484,-0.03027 -0.16234,-0.08026 -0.23297,-0.14905 -0.07017,-0.06879 -0.12337,-0.14447 -0.15868,-0.22747 -0.03577,-0.08255 -0.05366,-0.17382 -0.05366,-0.27288l0 -0.00825c0,-0.12887 0.03394,-0.24444 0.10181,-0.34763zm0.15135 0.33937c0,0.13254 0.03531,0.24536 0.10548,0.33937 0.07062,0.09402 0.18344,0.1408 0.33891,0.1408 0.08026,0 0.15318,-0.01651 0.21784,-0.04953 0.06512,-0.03348 0.11511,-0.08576 0.14951,-0.15731 0.03485,-0.072 0.05228,-0.16647 0.05228,-0.28434 0,-0.08484 -0.0211,-0.15913 -0.06329,-0.2238 -0.03623,-0.0642 -0.08759,-0.11373 -0.15317,-0.14905 -0.06605,-0.03485 -0.13759,-0.05228 -0.21418,-0.05228 -0.13712,0 -0.24306,0.04586 -0.31827,0.13804 -0.03853,0.04587 -0.06696,0.0931 -0.08622,0.14217 -0.01926,0.04862 -0.02889,0.10044 -0.02889,0.15593zm1.5657 1.00849c0.07704,0.02293 0.14904,0.0399 0.216,0.05136 0.06696,0.01147 0.12245,0.01743 0.16648,0.01743 0.12841,0 0.23481,-0.03669 0.31919,-0.11007 0.08439,-0.07383 0.12658,-0.16831 0.12658,-0.28434l0 -0.6448c0,-0.09402 -0.01972,-0.17703 -0.05916,-0.24949 -0.03944,-0.07246 -0.08897,-0.12841 -0.14859,-0.16693 -0.05962,-0.03853 -0.1252,-0.05779 -0.19675,-0.05779 -0.12107,0 -0.22655,0.03898 -0.31644,0.11741 -0.08989,0.07796 -0.13483,0.19537 -0.13483,0.35175l0 0.04128c0,0.04999 0.01055,0.0986 0.0321,0.14629 0.0211,0.04816 0.05182,0.09402 0.09264,0.13805 0.07751,0.08117 0.18207,0.12153 0.31323,0.12153 0.08668,0 0.194,-0.03669 0.32149,-0.11007l0 0.25499c-0.06054,0.02797 -0.11878,0.04907 -0.17473,0.06421 -0.05595,0.01467 -0.11144,0.02201 -0.16648,0.02201 -0.08989,0 -0.17335,-0.01697 -0.2504,-0.05091 -0.07705,-0.03393 -0.14951,-0.08622 -0.21738,-0.15593 -0.12474,-0.1307 -0.18711,-0.28755 -0.18711,-0.47145 0,-0.2371 0.07154,-0.41321 0.21463,-0.52786 0.14308,-0.11511 0.29901,-0.17244 0.46778,-0.17244 0.17978,0 0.3302,0.05962 0.45127,0.17932 0.06421,0.06054 0.11374,0.12703 0.14859,0.19949 0.03486,0.07247 0.05229,0.15226 0.05229,0.23848l0 0.67783c0,0.03486 -0.00367,0.07338 -0.01101,0.11557 -0.00734,0.04219 -0.01926,0.08943 -0.03577,0.14079 -0.02935,0.09907 -0.09539,0.19446 -0.19812,0.28664 -0.10273,0.09172 -0.24765,0.13758 -0.43477,0.13758 -0.07888,0 -0.15363,-0.00596 -0.22426,-0.01789 -0.07062,-0.01192 -0.1463,-0.03164 -0.22701,-0.05916l0.06054 -0.22288zm1.34831 -1.34786c0.06421,-0.1009 0.14768,-0.18069 0.25041,-0.23985 0.10272,-0.05871 0.21279,-0.08806 0.3302,-0.08806 0.11006,0 0.22013,0.02752 0.3302,0.08255 0.10273,0.04816 0.18894,0.12429 0.25865,0.22885 0.06971,0.10502 0.10457,0.22701 0.10457,0.36689 0,0.10089 -0.02385,0.205 -0.07109,0.3114 -0.04769,0.10685 -0.12245,0.19766 -0.22472,0.27333 -0.0532,0.03852 -0.10731,0.06741 -0.16326,0.08668 -0.05595,0.01926 -0.11649,0.02889 -0.18207,0.02889 -0.10778,0 -0.20454,-0.01514 -0.28939,-0.0454 -0.08484,-0.03027 -0.16234,-0.08026 -0.23297,-0.14905 -0.07017,-0.06879 -0.12337,-0.14447 -0.15868,-0.22747 -0.03577,-0.08255 -0.05366,-0.17382 -0.05366,-0.27288l0 -0.00825c0,-0.12887 0.03394,-0.24444 0.10181,-0.34763zm0.15135 0.33937c0,0.13254 0.03531,0.24536 0.10548,0.33937 0.07062,0.09402 0.18344,0.1408 0.33891,0.1408 0.08026,0 0.15318,-0.01651 0.21784,-0.04953 0.06512,-0.03348 0.11511,-0.08576 0.14951,-0.15731 0.03485,-0.072 0.05228,-0.16647 0.05228,-0.28434 0,-0.08484 -0.0211,-0.15913 -0.06329,-0.2238 -0.03623,-0.0642 -0.08759,-0.11373 -0.15317,-0.14905 -0.06605,-0.03485 -0.13759,-0.05228 -0.21418,-0.05228 -0.13712,0 -0.24306,0.04586 -0.31827,0.13804 -0.03853,0.04587 -0.06696,0.0931 -0.08622,0.14217 -0.01926,0.04862 -0.02889,0.10044 -0.02889,0.15593zm1.29053 0.4554l0.66315 0 0.01926 0c0.10457,0 0.15685,-0.03944 0.15685,-0.11786 0,-0.05824 -0.03027,-0.09998 -0.09081,-0.12428 -0.06053,-0.02477 -0.18436,-0.06559 -0.37147,-0.12199 -0.12841,-0.04403 -0.22335,-0.09402 -0.2848,-0.15043 -0.06145,-0.05687 -0.09218,-0.13162 -0.09218,-0.22472 0,-0.06741 0.00963,-0.12337 0.02889,-0.16693 0.01926,-0.04403 0.05182,-0.07934 0.09769,-0.10686 0.09172,-0.05274 0.19995,-0.07934 0.32469,-0.07934l0.5696 0 0 0.23114 -0.61638 0c-0.10089,0 -0.15134,0.03944 -0.15134,0.11832 0,0.02752 0.01193,0.05137 0.03577,0.07155 0.02385,0.02017 0.05871,0.03944 0.10457,0.05778l0.12657 0.04128 0.13208 0.03026c0.28985,0.07889 0.43477,0.22014 0.43477,0.42376 0,0.11374 -0.03669,0.1995 -0.11007,0.25728 -0.07338,0.05779 -0.17977,0.08668 -0.31919,0.08668l-0.08255 0 -0.5751 0 0 -0.22564zm1.13919 -1.46113l0 -0.24215 1.21899 0 0 0.24215 -0.47604 0 0 1.68677 -0.25866 0 0 -1.68677 -0.48429 0zm1.28228 1.44462l0.67966 0c0.18161,0 0.28342,-0.06971 0.30544,-0.20912 0,-0.01468 0,-0.02569 0,-0.03302 0,-0.11741 -0.08668,-0.21922 -0.2605,-0.30544l-0.21692 -0.10456c-0.11511,-0.05687 -0.20546,-0.11007 -0.27012,-0.1596 -0.06512,-0.04953 -0.1197,-0.1064 -0.16327,-0.1706 -0.03852,-0.06604 -0.05778,-0.14126 -0.05778,-0.22564 0,-0.10089 0.0243,-0.18711 0.07292,-0.25866 0.04861,-0.07154 0.10961,-0.12657 0.18298,-0.1651 0.03853,-0.01834 0.07567,-0.0321 0.11145,-0.04127 0.03577,-0.00917 0.07475,-0.01376 0.11694,-0.01376l0.6604 0 0 0.24215 -0.6604 0c-0.06971,0 -0.12566,0.02247 -0.16785,0.06741 -0.04219,0.04495 -0.06329,0.09769 -0.06329,0.15822 0,0.07155 0.02981,0.12887 0.08943,0.17198 0.05962,0.04311 0.12337,0.08209 0.19124,0.11695l0.16785 0.0798c0.02752,0.01284 0.05504,0.02476 0.08255,0.03577 0.01101,0.0055 0.04403,0.02293 0.09906,0.05228 0.11741,0.06971 0.20409,0.14676 0.26004,0.23114 0.05595,0.08439 0.08392,0.17702 0.08392,0.27792 0,0.12841 -0.04219,0.24306 -0.12657,0.34396 -0.08439,0.10089 -0.22381,0.15134 -0.41826,0.15134l-0.69892 0 0 -0.24215zm1.65101 -0.75808c0,0.10823 0.01513,0.20637 0.0454,0.29534 0.03027,0.08897 0.08117,0.17198 0.15272,0.24995 0.07154,0.07796 0.15225,0.1385 0.24214,0.18252 0.08989,0.04403 0.18712,0.06604 0.29168,0.06604 0.09172,0 0.19353,-0.02384 0.30544,-0.07154 0.1119,-0.04769 0.21233,-0.12979 0.3013,-0.24719 0.08897,-0.11695 0.13346,-0.2637 0.13346,-0.43935 0,-0.06604 -0.00688,-0.12887 -0.02064,-0.18803 -0.01376,-0.05962 -0.03531,-0.11878 -0.06466,-0.17748 -0.06054,-0.11695 -0.14813,-0.21142 -0.26279,-0.28251 -0.11465,-0.07154 -0.24719,-0.10731 -0.39761,-0.10731 -0.12841,0 -0.24857,0.03302 -0.36047,0.09906 -0.1119,0.06558 -0.20087,0.15409 -0.26691,0.26507 -0.06604,0.11053 -0.09906,0.22931 -0.09906,0.35543zm-0.27517 0c0,-0.13713 0.02797,-0.26279 0.08392,-0.37652 0.05595,-0.11328 0.13208,-0.21463 0.22839,-0.3036 0.09631,-0.08897 0.20225,-0.15685 0.31782,-0.20454 0.06054,-0.02569 0.11832,-0.04495 0.17336,-0.05779 0.05503,-0.01284 0.11373,-0.01926 0.1761,-0.01926 0.08439,0 0.16189,0.00688 0.23252,0.02064 0.07063,0.01376 0.14538,0.03898 0.22426,0.07567 0.15593,0.06787 0.28893,0.1784 0.39899,0.33249 0.0587,0.08209 0.10365,0.16831 0.13483,0.2582 0.03119,0.08989 0.04678,0.18941 0.04678,0.29947 0,0.08439 -0.00871,0.16373 -0.02614,0.23756 -0.01743,0.0743 -0.04815,0.15272 -0.09218,0.23527 -0.08071,0.15364 -0.19904,0.28113 -0.35496,0.38157 -0.15593,0.10089 -0.32837,0.15134 -0.51732,0.15134 -0.17244,0 -0.338,-0.04174 -0.49668,-0.1252 -0.15867,-0.08301 -0.28663,-0.20271 -0.38385,-0.35864 -0.09723,-0.15547 -0.14584,-0.33799 -0.14584,-0.54666z"/>
   <path class="fil4" d="M1.56347 1.01506c0.0336,-0.05279 0.07218,-0.10001 0.11571,-0.14168 0.04363,-0.04177 0.09241,-0.07816 0.14626,-0.10917l0 -0.00013c0.05378,-0.03073 0.10972,-0.05387 0.16779,-0.06934 0.05802,-0.01547 0.11777,-0.02322 0.17921,-0.02322 0.05766,0 0.11545,0.00724 0.17329,0.0217 0.05688,0.01421 0.11394,0.0356 0.1712,0.06417 0.05431,0.02545 0.10426,0.0583 0.14978,0.09855 0.04529,0.04007 0.08618,0.08741 0.12262,0.14207l0.00014 0.00013c0.03681,0.05546 0.06443,0.11536 0.08279,0.17976 0.0183,0.06421 0.02747,0.13278 0.02747,0.20578 0,0.05262 -0.00627,0.10631 -0.01873,0.1609 -0.01232,0.05396 -0.03082,0.10873 -0.05541,0.16413l0 0.00013c-0.02507,0.05615 -0.05728,0.10815 -0.09665,0.15603 -0.03924,0.0477 -0.08549,0.09122 -0.13878,0.13066l-0.00027 0.00026c-0.028,0.02028 -0.05618,0.03798 -0.08457,0.05308 -0.02868,0.01524 -0.05784,0.02799 -0.08755,0.03823 -0.02951,0.01015 -0.06053,0.01783 -0.09311,0.023 -0.03255,0.00516 -0.06586,0.00775 -0.09994,0.00775 -0.05509,0 -0.108,-0.00397 -0.15854,-0.0119 -0.0506,-0.00793 -0.09801,-0.01978 -0.14209,-0.03549l-0.00014 0c-0.0447,-0.01595 -0.0876,-0.03717 -0.12869,-0.06352 -0.04066,-0.02606 -0.07948,-0.05719 -0.11645,-0.0932l-0.00013 -0.00013c-0.03643,-0.03571 -0.06861,-0.07343 -0.09638,-0.11318 -0.02793,-0.03995 -0.05122,-0.08166 -0.06971,-0.12514 -0.01885,-0.04374 -0.033,-0.08943 -0.04233,-0.1369 -0.0094,-0.04781 -0.01411,-0.09761 -0.01411,-0.14921l0 -0.00825c0,-0.06745 0.00897,-0.13176 0.02691,-0.19297 0.01784,-0.06088 0.04465,-0.11849 0.08041,-0.1729zm0.16253 -0.093c-0.0399,0.0382 -0.07516,0.08132 -0.10573,0.12936l-0.00026 0.0004c-0.03202,0.04868 -0.05607,0.10038 -0.07213,0.15518 -0.01599,0.05457 -0.02399,0.11252 -0.02399,0.17393l0 0.00825c0,0.04752 0.00426,0.09298 0.01277,0.13625 0.00853,0.04341 0.0212,0.08456 0.03797,0.12327l0.00014 0.00013c0.0168,0.03951 0.0378,0.07717 0.06283,0.11298 0.02514,0.03597 0.05462,0.07047 0.08831,0.10351 0.03363,0.03275 0.06893,0.06106 0.10587,0.08474 0.03649,0.02339 0.0748,0.04232 0.11493,0.05664 0.04064,0.01453 0.08396,0.02539 0.12979,0.03257 0.04603,0.00722 0.09549,0.01084 0.14822,0.01084 0.03148,0 0.06127,-0.00224 0.08936,-0.00669 0.02804,-0.00445 0.05529,-0.01124 0.08173,-0.02034 0.0262,-0.00903 0.05211,-0.02038 0.07777,-0.03401 0.02593,-0.01379 0.05145,-0.02981 0.07663,-0.04804 0.04886,-0.03614 0.09106,-0.07581 0.12661,-0.11902 0.03547,-0.04314 0.06451,-0.09003 0.08713,-0.14069 0.02269,-0.05102 0.03977,-0.10161 0.05117,-0.15156 0.01122,-0.04917 0.01687,-0.09791 0.01687,-0.14608 0,-0.06687 -0.00828,-0.12928 -0.02481,-0.18726 -0.01648,-0.0578 -0.04119,-0.11143 -0.07407,-0.16098 -0.0332,-0.04985 -0.07026,-0.09282 -0.11112,-0.12896 -0.04068,-0.03597 -0.08525,-0.0653 -0.13364,-0.08798l-0.00079 -0.0004c-0.05255,-0.02627 -0.1053,-0.04603 -0.15823,-0.05926 -0.0522,-0.01305 -0.1045,-0.01958 -0.15689,-0.01958 -0.05597,0 -0.10999,0.00695 -0.16201,0.02082 -0.052,0.01386 -0.10248,0.03479 -0.15139,0.06274l-0.00006 -0.0001c-0.04883,0.02813 -0.09319,0.06124 -0.13298,0.09934zm0.05105 0.45061c0,0.06296 0.00831,0.12097 0.02484,0.17408 0.01642,0.05277 0.04108,0.10109 0.07389,0.14505 0.03146,0.04203 0.07265,0.07357 0.12348,0.09468 0.05219,0.02166 0.11495,0.03249 0.18831,0.03249 0.07501,0 0.14277,-0.01522 0.20239,-0.04564 0.02925,-0.0151 0.0551,-0.03437 0.07742,-0.05786 0.02249,-0.02366 0.04156,-0.05167 0.05711,-0.08402l0 -0.00013c0.01614,-0.03335 0.02829,-0.07213 0.03644,-0.11638 0.00826,-0.04491 0.0124,-0.09598 0.0124,-0.15328 0,-0.03946 -0.00484,-0.07621 -0.01449,-0.11033 -0.00962,-0.03398 -0.02405,-0.06565 -0.04324,-0.09508l-0.00106 -0.00185c-0.01635,-0.02898 -0.03622,-0.05478 -0.05946,-0.07739 -0.02334,-0.02272 -0.05017,-0.04219 -0.08035,-0.05844 -0.03055,-0.01609 -0.06226,-0.02815 -0.09502,-0.03615 -0.03283,-0.00801 -0.06724,-0.01202 -0.10315,-0.01202 -0.06414,0 -0.12047,0.01049 -0.16899,0.03153 -0.04791,0.02077 -0.08894,0.05208 -0.12309,0.09394l-0.00039 0.00039c-0.01809,0.02153 -0.03383,0.0434 -0.04727,0.06559l0.0001 0.00006c-0.0134,0.02214 -0.0245,0.04451 -0.03337,0.06713l0 0.00013c-0.00894,0.02258 -0.0156,0.0456 -0.01995,0.06905 -0.00436,0.02354 -0.00655,0.04835 -0.00655,0.07445zm-0.03972 0.19418c-0.01865,-0.05992 -0.02802,-0.12462 -0.02802,-0.19418 0,-0.0294 0.00264,-0.05827 0.00789,-0.08663 0.00528,-0.02847 0.01309,-0.05571 0.02339,-0.08173 0.01041,-0.02638 0.02316,-0.05216 0.03839,-0.07732l0.00013 0c0.01511,-0.02497 0.03277,-0.04953 0.05303,-0.07369 0.04099,-0.05033 0.09057,-0.08807 0.14871,-0.11327 0.05751,-0.02493 0.12274,-0.03737 0.19571,-0.03737 0.0407,0 0.08042,0.00472 0.11903,0.01414 0.03852,0.00941 0.07552,0.02345 0.11089,0.04211l0.00027 0.00014c0.03563,0.01919 0.06751,0.04237 0.09543,0.06954 0.02718,0.02644 0.05061,0.05677 0.07012,0.09101 0.02294,0.03518 0.04016,0.07299 0.05162,0.11347 0.01142,0.04038 0.01715,0.08322 0.01715,0.12859 0,0.06055 -0.00459,0.11569 -0.01374,0.16546 -0.00928,0.05043 -0.02329,0.09493 -0.04198,0.13356 -0.01879,0.03894 -0.04181,0.07273 -0.06903,0.10135 -0.0276,0.02905 -0.05946,0.05282 -0.09543,0.07131l-0.00013 0c-0.06966,0.03557 -0.14773,0.05337 -0.23319,0.05337 -0.08212,0 -0.15352,-0.01259 -0.21423,-0.03779 -0.06207,-0.02577 -0.11261,-0.06464 -0.15167,-0.11664l-0.00013 0c-0.03735,-0.05004 -0.06546,-0.10516 -0.08421,-0.16543zm1.58121 0.7819c0.03721,0.01107 0.07357,0.02082 0.10903,0.02924 0.03592,0.00853 0.07026,0.01559 0.103,0.02119 0.03324,0.00569 0.06314,0.00997 0.08959,0.01276 0.02603,0.00274 0.04977,0.00414 0.0712,0.00414 0.12008,0 0.21913,-0.03392 0.2971,-0.10173 0.03839,-0.03361 0.06714,-0.07178 0.08621,-0.11458 0.01905,-0.04277 0.02859,-0.09083 0.02859,-0.14423l0 -0.6448c0,-0.08843 -0.01831,-0.16608 -0.05492,-0.23335 -0.01841,-0.03384 -0.03929,-0.06392 -0.06257,-0.09007 -0.02272,-0.02553 -0.04763,-0.0471 -0.07465,-0.06456l0 -0.00013c-0.0269,-0.01739 -0.05531,-0.03048 -0.08516,-0.03924 -0.02947,-0.00866 -0.0606,-0.01299 -0.09333,-0.01299 -0.05659,0 -0.10936,0.00904 -0.15827,0.02717 -0.0489,0.01812 -0.09425,0.04537 -0.13595,0.08177l-0.00013 0.00013c-0.04056,0.03518 -0.0711,0.07953 -0.09158,0.13293 -0.02097,0.05473 -0.03147,0.1192 -0.03147,0.19329l0 0.04128c0,0.02267 0.00238,0.04495 0.00717,0.06687 0.00482,0.02206 0.01211,0.0439 0.02188,0.06553l0.00013 0.0004c0.00974,0.02224 0.02174,0.044 0.03601,0.06528 0.01431,0.02134 0.03112,0.04242 0.05042,0.06324 0.03517,0.03677 0.07647,0.06434 0.12377,0.08268 0.04814,0.01868 0.10308,0.028 0.16472,0.028 0.08085,0 0.18257,-0.03515 0.30469,-0.10544l0.05067 -0.02916 0 0.33498 -0.01972 0.0091c-0.03125,0.01443 -0.0618,0.02706 -0.0916,0.03798 -0.03005,0.011 -0.05959,0.02037 -0.08855,0.02821l-0.00026 0c-0.0293,0.00767 -0.05854,0.01346 -0.08768,0.01731 -0.02976,0.00392 -0.05886,0.0059 -0.08727,0.0059 -0.09455,0 -0.18257,-0.01795 -0.26403,-0.05383 -0.04062,-0.01788 -0.07992,-0.04051 -0.11781,-0.06769 -0.03777,-0.02709 -0.07451,-0.05903 -0.11015,-0.09564l-0.00026 -0.00027c-0.06529,-0.06841 -0.11438,-0.14393 -0.14721,-0.22663 -0.03286,-0.08275 -0.0493,-0.17209 -0.0493,-0.2681 0,-0.1229 0.01874,-0.23047 0.05619,-0.32259 0.03797,-0.09337 0.09503,-0.1706 0.17114,-0.23159 0.07446,-0.05991 0.15241,-0.10485 0.23379,-0.13482 0.08179,-0.03013 0.16686,-0.04517 0.25516,-0.04517 0.09394,0 0.18064,0.01574 0.26008,0.04729 0.07932,0.0315 0.15078,0.07859 0.21434,0.14129 0.03348,0.03157 0.06325,0.06484 0.08927,0.09977 0.02594,0.03482 0.04813,0.07139 0.06655,0.10967 0.01867,0.03869 0.03263,0.07925 0.04189,0.1215 0.00926,0.04224 0.01389,0.08618 0.01389,0.13164l0 0.67783c0,0.03661 -0.00385,0.07705 -0.01154,0.12126 -0.00389,0.02237 -0.00893,0.04578 -0.01508,0.07002 -0.00583,0.02295 -0.01304,0.04785 -0.02162,0.0746 -0.0157,0.05298 -0.0411,0.10484 -0.07617,0.15556 -0.03447,0.04987 -0.07846,0.09876 -0.13187,0.14669 -0.05513,0.04922 -0.12116,0.08601 -0.19804,0.11033 -0.0758,0.02398 -0.16222,0.03599 -0.25922,0.03599 -0.04002,0 -0.07934,-0.00154 -0.11787,-0.00461 -0.03813,-0.00304 -0.07547,-0.00766 -0.11195,-0.01381 -0.03595,-0.00606 -0.07351,-0.01421 -0.11264,-0.0244 -0.03909,-0.01018 -0.07899,-0.02223 -0.11966,-0.03609l-0.03013 -0.01027 0.07794 -0.28692 0.03324 0.00989zm0.09343 0.09512c-0.02566,-0.0061 -0.05214,-0.01298 -0.07944,-0.02066l-0.04314 0.15883c0.02919,0.0094 0.05743,0.01765 0.0847,0.02476 0.03653,0.00951 0.07216,0.01721 0.10682,0.02306 0.03411,0.00575 0.06951,0.01012 0.10613,0.01303 0.03619,0.00288 0.07373,0.00433 0.11257,0.00433 0.09011,0 0.16973,-0.01094 0.23884,-0.03281 0.06802,-0.02152 0.12585,-0.05355 0.17344,-0.09603 0.04929,-0.04423 0.08974,-0.08915 0.12129,-0.13479 0.03095,-0.04476 0.05326,-0.09018 0.06691,-0.13624l0.00026 -0.0008c0.00771,-0.02399 0.01458,-0.04785 0.02056,-0.07142 0.00585,-0.02306 0.01054,-0.0447 0.01402,-0.06474 0.00698,-0.04014 0.01048,-0.07678 0.01048,-0.10988l0 -0.67783c0,-0.04082 -0.0041,-0.07998 -0.01229,-0.11736 -0.00816,-0.03723 -0.02036,-0.07276 -0.03656,-0.10644l0 -0.00013c-0.01641,-0.03411 -0.03641,-0.06702 -0.05998,-0.09866 -0.02349,-0.03154 -0.05063,-0.06182 -0.08133,-0.09077l-0.00053 -0.00053c-0.05737,-0.05672 -0.12151,-0.09914 -0.19237,-0.12728 -0.07097,-0.02818 -0.14939,-0.04225 -0.23522,-0.04225 -0.08046,0 -0.15776,0.01363 -0.23188,0.04093 -0.07454,0.02745 -0.14613,0.06877 -0.21473,0.12396 -0.06693,0.05364 -0.1172,0.12178 -0.15078,0.20435 -0.0341,0.08387 -0.05115,0.18296 -0.05115,0.29719 0,0.08789 0.01476,0.16895 0.04426,0.24324 0.0295,0.07433 0.07396,0.14256 0.13332,0.2048 0.03242,0.03328 0.06612,0.06252 0.10102,0.08756 0.03428,0.0246 0.06953,0.04493 0.10565,0.06083 0.07262,0.03199 0.15155,0.04799 0.23677,0.04799 0.02663,0 0.05282,-0.00171 0.07853,-0.0051 0.02624,-0.00347 0.05266,-0.0087 0.07924,-0.01565 0.02694,-0.00735 0.05453,-0.01612 0.08271,-0.02643 0.02202,-0.00806 0.04433,-0.01705 0.06686,-0.02697l0 -0.17614c-0.11112,0.05792 -0.20711,0.08689 -0.28762,0.08689 -0.06965,0 -0.1327,-0.01091 -0.18906,-0.03278 -0.05688,-0.02206 -0.10646,-0.05517 -0.14864,-0.09934l-0.00027 -0.00026c-0.0215,-0.0232 -0.04051,-0.0471 -0.05702,-0.07172 -0.01647,-0.02456 -0.03035,-0.04971 -0.04166,-0.07548 -0.01182,-0.02605 -0.0206,-0.05238 -0.02642,-0.07901 -0.00586,-0.0268 -0.00877,-0.05384 -0.00877,-0.08115l0 -0.04128c0,-0.08231 0.012,-0.1548 0.03597,-0.21737 0.02447,-0.06382 0.06137,-0.11717 0.11064,-0.15991 0.04812,-0.04195 0.10047,-0.0734 0.15698,-0.09434 0.05654,-0.02096 0.11707,-0.03141 0.18155,-0.03141 0.0388,0 0.07628,0.0053 0.11237,0.01591 0.03569,0.01047 0.06989,0.02628 0.10258,0.0474l0.00006 -0.00009c0.03242,0.02094 0.06199,0.04648 0.08867,0.07646 0.02639,0.02965 0.05017,0.06396 0.07129,0.10277 0.04226,0.07765 0.0634,0.16604 0.0634,0.26563l0 0.6448c0,0.06261 -0.01157,0.11984 -0.03469,0.17175 -0.0231,0.05186 -0.05763,0.09782 -0.10354,0.13799l-0.00013 0.00013c-0.09076,0.07893 -0.20454,0.11841 -0.34128,0.11841 -0.02261,0 -0.04866,-0.00159 -0.07808,-0.00468 -0.02902,-0.00306 -0.06039,-0.00752 -0.09409,-0.01328 -0.03476,-0.00595 -0.07052,-0.01327 -0.10722,-0.02199zm1.21686 -1.42881c0.0336,-0.05279 0.07218,-0.10001 0.11571,-0.14168 0.04363,-0.04177 0.09241,-0.07816 0.14626,-0.10917l0 -0.00013c0.05378,-0.03073 0.10972,-0.05387 0.16779,-0.06934 0.05802,-0.01547 0.11777,-0.02322 0.17921,-0.02322 0.05766,0 0.11545,0.00724 0.17329,0.0217 0.05688,0.01421 0.11394,0.0356 0.1712,0.06417 0.05431,0.02545 0.10426,0.0583 0.14978,0.09855 0.04529,0.04007 0.08618,0.08741 0.12262,0.14207l0.00014 0.00013c0.03681,0.05546 0.06443,0.11536 0.08279,0.17976 0.0183,0.06421 0.02747,0.13278 0.02747,0.20578 0,0.05262 -0.00627,0.10631 -0.01873,0.1609 -0.01232,0.05396 -0.03082,0.10873 -0.05541,0.16413l0 0.00013c-0.02507,0.05615 -0.05728,0.10815 -0.09665,0.15603 -0.03924,0.0477 -0.08549,0.09122 -0.13878,0.13066l-0.00027 0.00026c-0.028,0.02028 -0.05618,0.03798 -0.08457,0.05308 -0.02868,0.01524 -0.05784,0.02799 -0.08755,0.03823 -0.02951,0.01015 -0.06053,0.01783 -0.09311,0.023 -0.03255,0.00516 -0.06586,0.00775 -0.09994,0.00775 -0.05509,0 -0.108,-0.00397 -0.15854,-0.0119 -0.0506,-0.00793 -0.09801,-0.01978 -0.14209,-0.03549l-0.00014 0c-0.0447,-0.01595 -0.0876,-0.03717 -0.12869,-0.06352 -0.04066,-0.02606 -0.07948,-0.05719 -0.11645,-0.0932l-0.00013 -0.00013c-0.03643,-0.03571 -0.06861,-0.07343 -0.09638,-0.11318 -0.02793,-0.03995 -0.05122,-0.08166 -0.06971,-0.12514 -0.01885,-0.04374 -0.033,-0.08943 -0.04233,-0.1369 -0.0094,-0.04781 -0.01411,-0.09761 -0.01411,-0.14921l0 -0.00825c0,-0.06745 0.00897,-0.13176 0.02691,-0.19297 0.01784,-0.06088 0.04465,-0.11849 0.08041,-0.1729zm0.16253 -0.093c-0.0399,0.0382 -0.07516,0.08132 -0.10573,0.12936l-0.00026 0.0004c-0.03202,0.04868 -0.05607,0.10038 -0.07213,0.15518 -0.01599,0.05457 -0.02399,0.11252 -0.02399,0.17393l0 0.00825c0,0.04752 0.00426,0.09298 0.01277,0.13625 0.00853,0.04341 0.0212,0.08456 0.03797,0.12327l0.00014 0.00013c0.0168,0.03951 0.0378,0.07717 0.06283,0.11298 0.02514,0.03597 0.05462,0.07047 0.08831,0.10351 0.03363,0.03275 0.06893,0.06106 0.10587,0.08474 0.03649,0.02339 0.0748,0.04232 0.11493,0.05664 0.04064,0.01453 0.08396,0.02539 0.12979,0.03257 0.04603,0.00722 0.09549,0.01084 0.14822,0.01084 0.03148,0 0.06127,-0.00224 0.08936,-0.00669 0.02804,-0.00445 0.05529,-0.01124 0.08173,-0.02034 0.0262,-0.00903 0.05211,-0.02038 0.07777,-0.03401 0.02593,-0.01379 0.05145,-0.02981 0.07663,-0.04804 0.04886,-0.03614 0.09106,-0.07581 0.12661,-0.11902 0.03547,-0.04314 0.06451,-0.09003 0.08713,-0.14069 0.02269,-0.05102 0.03977,-0.10161 0.05117,-0.15156 0.01122,-0.04917 0.01687,-0.09791 0.01687,-0.14608 0,-0.06687 -0.00828,-0.12928 -0.02481,-0.18726 -0.01648,-0.0578 -0.04119,-0.11143 -0.07407,-0.16098 -0.0332,-0.04985 -0.07026,-0.09282 -0.11112,-0.12896 -0.04068,-0.03597 -0.08525,-0.0653 -0.13364,-0.08798l-0.00079 -0.0004c-0.05255,-0.02627 -0.1053,-0.04603 -0.15823,-0.05926 -0.0522,-0.01305 -0.1045,-0.01958 -0.15689,-0.01958 -0.05597,0 -0.10999,0.00695 -0.16201,0.02082 -0.052,0.01386 -0.10248,0.03479 -0.15139,0.06274l-0.00006 -0.0001c-0.04883,0.02813 -0.09319,0.06124 -0.13298,0.09934zm0.05105 0.45061c0,0.06296 0.00831,0.12097 0.02484,0.17408 0.01642,0.05277 0.04108,0.10109 0.07389,0.14505 0.03146,0.04203 0.07265,0.07357 0.12348,0.09468 0.05219,0.02166 0.11495,0.03249 0.18831,0.03249 0.07501,0 0.14277,-0.01522 0.20239,-0.04564 0.02925,-0.0151 0.0551,-0.03437 0.07742,-0.05786 0.02249,-0.02366 0.04156,-0.05167 0.05711,-0.08402l0 -0.00013c0.01614,-0.03335 0.02829,-0.07213 0.03644,-0.11638 0.00826,-0.04491 0.0124,-0.09598 0.0124,-0.15328 0,-0.03946 -0.00484,-0.07621 -0.01449,-0.11033 -0.00962,-0.03398 -0.02405,-0.06565 -0.04324,-0.09508l-0.00106 -0.00185c-0.01635,-0.02898 -0.03622,-0.05478 -0.05946,-0.07739 -0.02334,-0.02272 -0.05017,-0.04219 -0.08035,-0.05844 -0.03055,-0.01609 -0.06226,-0.02815 -0.09502,-0.03615 -0.03283,-0.00801 -0.06724,-0.01202 -0.10315,-0.01202 -0.06414,0 -0.12047,0.01049 -0.16899,0.03153 -0.04791,0.02077 -0.08894,0.05208 -0.12309,0.09394l-0.00039 0.00039c-0.01809,0.02153 -0.03383,0.0434 -0.04727,0.06559l0.0001 0.00006c-0.0134,0.02214 -0.0245,0.04451 -0.03337,0.06713l0 0.00013c-0.00894,0.02258 -0.0156,0.0456 -0.01995,0.06905 -0.00436,0.02354 -0.00655,0.04835 -0.00655,0.07445zm-0.03972 0.19418c-0.01865,-0.05992 -0.02802,-0.12462 -0.02802,-0.19418 0,-0.0294 0.00264,-0.05827 0.00789,-0.08663 0.00528,-0.02847 0.01309,-0.05571 0.02339,-0.08173 0.01041,-0.02638 0.02316,-0.05216 0.03839,-0.07732l0.00013 0c0.01511,-0.02497 0.03277,-0.04953 0.05303,-0.07369 0.04099,-0.05033 0.09057,-0.08807 0.14871,-0.11327 0.05751,-0.02493 0.12274,-0.03737 0.19571,-0.03737 0.0407,0 0.08042,0.00472 0.11903,0.01414 0.03852,0.00941 0.07552,0.02345 0.11089,0.04211l0.00027 0.00014c0.03563,0.01919 0.06751,0.04237 0.09543,0.06954 0.02718,0.02644 0.05061,0.05677 0.07012,0.09101 0.02294,0.03518 0.04016,0.07299 0.05162,0.11347 0.01142,0.04038 0.01715,0.08322 0.01715,0.12859 0,0.06055 -0.00459,0.11569 -0.01374,0.16546 -0.00928,0.05043 -0.02329,0.09493 -0.04198,0.13356 -0.01879,0.03894 -0.04181,0.07273 -0.06903,0.10135 -0.0276,0.02905 -0.05946,0.05282 -0.09543,0.07131l-0.00013 0c-0.06966,0.03557 -0.14773,0.05337 -0.23319,0.05337 -0.08212,0 -0.15352,-0.01259 -0.21423,-0.03779 -0.06207,-0.02577 -0.11261,-0.06464 -0.15167,-0.11664l-0.00013 0c-0.03735,-0.05004 -0.06546,-0.10516 -0.08421,-0.16543zm1.29638 0.22735l0.68241 0c0.04486,0 0.07732,-0.00756 0.09736,-0.02261 0.01707,-0.01283 0.02562,-0.03331 0.02562,-0.06138 0,-0.04311 -0.02318,-0.07434 -0.06951,-0.09293l-0.00013 -0.00013c-0.02893,-0.01183 -0.07475,-0.02809 -0.13746,-0.04868 -0.06113,-0.02007 -0.13814,-0.04414 -0.23097,-0.07212l-0.00132 -0.0004c-0.06565,-0.02251 -0.12308,-0.04673 -0.17227,-0.07268 -0.05007,-0.02643 -0.09158,-0.05473 -0.12444,-0.08489l0 -0.00013c-0.03442,-0.03186 -0.06025,-0.06874 -0.07746,-0.11068 -0.01713,-0.04173 -0.0257,-0.08799 -0.0257,-0.13878 0,-0.07206 0.01061,-0.1326 0.03181,-0.18056 0.01114,-0.0253 0.02612,-0.04819 0.04495,-0.06874 0.01859,-0.02029 0.04071,-0.03807 0.06636,-0.05346l0.00053 -0.00027c0.04867,-0.02798 0.10163,-0.04903 0.15882,-0.06302 0.05699,-0.01394 0.11789,-0.02095 0.18267,-0.02095l0.60347 0 0 0.29888 -0.65025 0c-0.07831,0 -0.11747,0.02815 -0.11747,0.08445 0,0.00848 0.00179,0.01631 0.00536,0.02345l-0.0001 0.00005c0.00384,0.00765 0.01001,0.01509 0.01847,0.02225 0.0102,0.00862 0.02304,0.01722 0.03849,0.02575 0.01599,0.00884 0.03448,0.01749 0.05537,0.0259l0.12463 0.04065 0.13176 0.03015c0.15047,0.04095 0.26408,0.09882 0.34077,0.17357 0.07933,0.07731 0.11901,0.17162 0.11901,0.28286 0,0.12466 -0.04102,0.21929 -0.12304,0.28387 -0.04032,0.03174 -0.08928,0.05545 -0.14687,0.07109 -0.05613,0.01524 -0.12055,0.02287 -0.19322,0.02287l-0.69152 0 0 -0.29338 0.03387 0zm0.66315 0.06774l-0.62928 0 0 0.1579 0.62378 0c0.06675,0 0.12526,-0.00683 0.1755,-0.02047 0.04879,-0.01325 0.08973,-0.0329 0.12279,-0.05893 0.06472,-0.05096 0.0971,-0.12787 0.0971,-0.23069 0,-0.09237 -0.0328,-0.17053 -0.09837,-0.23444 -0.06822,-0.06649 -0.17204,-0.11873 -0.31139,-0.15665 -0.1093,-0.02507 -0.15375,-0.03733 -0.26024,-0.07206l-0.00212 -0.0008c-0.02433,-0.00973 -0.04577,-0.01972 -0.06422,-0.02992 -0.01941,-0.01072 -0.03596,-0.02187 -0.04961,-0.03341 -0.01534,-0.01299 -0.02707,-0.02759 -0.03516,-0.04374l-0.00013 0c-0.00834,-0.0167 -0.01252,-0.03458 -0.01252,-0.05361 0,-0.10146 0.06176,-0.15219 0.18521,-0.15219l0.58251 0 0 -0.1634 -0.53573 0c-0.05996,0 -0.11557,0.0063 -0.16679,0.01883 -0.05082,0.01243 -0.0977,0.031 -0.14058,0.05559 -0.02021,0.01214 -0.03731,0.0258 -0.05127,0.04104 -0.01369,0.01494 -0.02463,0.0317 -0.03279,0.05036l0 0.00014c-0.01731,0.03915 -0.02597,0.09056 -0.02597,0.1533 0,0.04229 0.0068,0.07999 0.0204,0.11312 0.01349,0.03287 0.03375,0.06181 0.06074,0.0868 0.02862,0.02615 0.06535,0.05109 0.1102,0.07476 0.04572,0.02412 0.09996,0.04693 0.1627,0.06844 0.09224,0.02781 0.16936,0.05193 0.23128,0.07226 0.06246,0.02051 0.10976,0.03738 0.1418,0.05048 0.07476,0.02992 0.11214,0.08221 0.11214,0.15556 0,0.05039 -0.01763,0.08887 -0.05288,0.11536 -0.03223,0.02421 -0.0782,0.03637 -0.13784,0.03637l-0.01926 0zm0.44217 -1.495l0 -0.27602 1.28673 0 0 0.30989 -0.47604 0 0 1.68677 -0.3264 0 0 -1.68677 -0.48429 0 0 -0.03387zm0.06774 -0.20828l0 0.17441 0.48429 0 0 1.68677 0.19092 0 0 -1.68677 0.47604 0 0 -0.17441 -1.15125 0zm1.24841 1.61903l0.67966 0c0.0839,0 0.14842,-0.01545 0.19351,-0.04632 0.04213,-0.02884 0.06817,-0.07247 0.07806,-0.13086l0 -0.03109c0,-0.05049 -0.01895,-0.09798 -0.05686,-0.14246 -0.04038,-0.04736 -0.10185,-0.09155 -0.18445,-0.13255l-0.21719 -0.1047c-0.0585,-0.0289 -0.11063,-0.05682 -0.15623,-0.08374 -0.0461,-0.02721 -0.08597,-0.05367 -0.11944,-0.0793 -0.0342,-0.02612 -0.06549,-0.05392 -0.09373,-0.08342 -0.02834,-0.02962 -0.05403,-0.06134 -0.07695,-0.09511l-0.00133 -0.00199c-0.02071,-0.03551 -0.03631,-0.07371 -0.04676,-0.11454 -0.01042,-0.04072 -0.01565,-0.08342 -0.01565,-0.12803 0,-0.05338 0.00652,-0.10321 0.01956,-0.14946 0.0131,-0.04648 0.03288,-0.08922 0.05932,-0.12812 0.02597,-0.03824 0.05516,-0.07197 0.08749,-0.10113 0.03254,-0.02936 0.06844,-0.05435 0.10766,-0.07495l0.00119 -0.00066c0.01997,-0.0095 0.03988,-0.01794 0.05967,-0.02526 0.01979,-0.00733 0.03914,-0.01344 0.058,-0.01826l0.00003 0.00013c0.01978,-0.00507 0.03999,-0.00883 0.06052,-0.01124 0.02101,-0.00246 0.0426,-0.00371 0.06472,-0.00371l0.69427 0 0 0.30989 -0.69427 0c-0.06,0 -0.10776,0.0189 -0.14324,0.05669 -0.01818,0.01936 -0.03177,0.04028 -0.04073,0.06269 -0.00886,0.02216 -0.0133,0.0463 -0.0133,0.07238 0,0.06005 0.02514,0.10826 0.0754,0.1446 0.05824,0.04211 0.12019,0.08005 0.1858,0.11381l0.16787 0.07976c0.01395,0.00656 0.02734,0.0126 0.04016,0.01816 0.01208,0.00523 0.02563,0.01085 0.04054,0.01682l0.00251 0.00119c0.00752,0.00376 0.01885,0.00963 0.03368,0.01746l0.0675 0.03588c0.06066,0.03601 0.11347,0.07399 0.15835,0.1139 0.04545,0.04039 0.08301,0.08297 0.11267,0.12769 0.02981,0.04494 0.05219,0.09217 0.06713,0.14164 0.015,0.04952 0.02248,0.10118 0.02248,0.15493 0,0.13654 -0.04484,0.25843 -0.13451,0.36565 -0.04605,0.05506 -0.10684,0.09627 -0.18228,0.12356 -0.0736,0.02664 -0.16092,0.03996 -0.26191,0.03996l-0.73279 0 0 -0.30989 0.03387 0zm0.67966 0.06774l-0.64579 0 0 0.17441 0.66505 0c0.09345,0 0.17309,-0.01191 0.23889,-0.03572 0.06396,-0.02314 0.11513,-0.05764 0.15344,-0.10344 0.07907,-0.09456 0.11863,-0.20199 0.11863,-0.32227 0,-0.04715 -0.00651,-0.09228 -0.01952,-0.13536l0 -0.00013c-0.01301,-0.04311 -0.03259,-0.0844 -0.05871,-0.12378 -0.02629,-0.03965 -0.06006,-0.07782 -0.10129,-0.11445 -0.04177,-0.03714 -0.09105,-0.07257 -0.14777,-0.10624l-0.06458 -0.03428 -0.03063 -0.01606c-0.01239,-0.00497 -0.02619,-0.01075 -0.04134,-0.01731 -0.01462,-0.00634 -0.0287,-0.01267 -0.04215,-0.01894 -0.00044,0 -0.15747,-0.07381 -0.16891,-0.08033 -0.06976,-0.03583 -0.13502,-0.07571 -0.19573,-0.1196 -0.06896,-0.04986 -0.10346,-0.11632 -0.10346,-0.19936 0,-0.03445 0.00612,-0.06696 0.01834,-0.09752 0.01212,-0.03031 0.0302,-0.05828 0.05421,-0.08385 0.04889,-0.05208 0.11306,-0.07813 0.19246,-0.07813l0.62653 0 0 -0.17441 -0.62653 0c-0.02007,0 -0.03909,0.00107 -0.05704,0.00317 -0.01842,0.00216 -0.03562,0.0053 -0.05157,0.00939l0 0.00014c-0.01691,0.00433 -0.03406,0.00972 -0.05138,0.01614 -0.01734,0.00641 -0.03531,0.01406 -0.05385,0.02288 -0.03369,0.01778 -0.06459,0.03938 -0.09271,0.06475 -0.02864,0.02583 -0.0543,0.05542 -0.07691,0.08871 -0.02217,0.03262 -0.03887,0.06883 -0.05006,0.10854 -0.01127,0.03996 -0.0169,0.0837 -0.0169,0.1312 0,0.03976 0.00443,0.0769 0.01325,0.11137 0.00878,0.03427 0.02203,0.06665 0.03975,0.09708 0.02026,0.02965 0.04317,0.0578 0.06863,0.0844 0.02628,0.02746 0.05496,0.05299 0.08592,0.07654l0.00013 0c0.03117,0.02387 0.06884,0.04883 0.11284,0.0748 0.04444,0.02623 0.09498,0.05331 0.15146,0.08123l0.21719 0.10469c0.09107,0.04517 0.15977,0.09497 0.20614,0.14935 0.04887,0.05733 0.07328,0.11946 0.07328,0.18638l0 0.03483 -0.00053 0.00335c-0.01253,0.07939 -0.04827,0.13927 -0.10717,0.17959 -0.0567,0.03882 -0.13392,0.05824 -0.23161,0.05824zm1.00522 -0.79195c0,0.05248 0.00365,0.10242 0.01095,0.14986 0.00728,0.04732 0.01815,0.09216 0.03259,0.13463 0.01434,0.04213 0.03358,0.0829 0.05771,0.12236 0.02425,0.03966 0.05356,0.07815 0.08787,0.11555 0.03454,0.03765 0.07108,0.07091 0.10956,0.09989 0.0387,0.02913 0.07957,0.05419 0.12253,0.07523 0.04247,0.0208 0.0868,0.03644 0.13292,0.04688 0.04587,0.01038 0.09387,0.01558 0.14394,0.01558 0.04339,0 0.08923,-0.00566 0.13748,-0.01695 0.04909,-0.0115 0.10069,-0.02878 0.15473,-0.05181 0.05308,-0.02262 0.10344,-0.0534 0.15105,-0.09242 0.04801,-0.03936 0.09352,-0.08735 0.13649,-0.14405l0.00014 -0.00013c0.04205,-0.05527 0.0736,-0.11761 0.09464,-0.18686 0.0212,-0.0698 0.0318,-0.14717 0.0318,-0.23199 0,-0.06367 -0.00658,-0.124 -0.01971,-0.18049 -0.00658,-0.02852 -0.01502,-0.05692 -0.02529,-0.08512 -0.01037,-0.02848 -0.02252,-0.05665 -0.0364,-0.08445 -0.02892,-0.05574 -0.06428,-0.10618 -0.10606,-0.15109 -0.04178,-0.04491 -0.08995,-0.08435 -0.14449,-0.11816l-0.00013 0c-0.05449,-0.034 -0.11327,-0.05953 -0.17626,-0.07652 -0.0633,-0.01708 -0.13114,-0.02563 -0.20349,-0.02563 -0.12233,0 -0.23677,0.03144 -0.34327,0.09429l-0.00014 0c-0.05337,0.03127 -0.10131,0.06806 -0.14379,0.11024 -0.04265,0.04235 -0.07973,0.09003 -0.11121,0.14293l0 0.00013c-0.03143,0.05261 -0.05502,0.10714 -0.0707,0.16343 -0.01564,0.05612 -0.02346,0.11439 -0.02346,0.17467zm-0.05599 0.15992c-0.00783,-0.05091 -0.01175,-0.1042 -0.01175,-0.15992 0,-0.06591 0.00871,-0.13019 0.02612,-0.19267 0.01732,-0.06218 0.04329,-0.12226 0.07784,-0.18009 0.03465,-0.05809 0.07517,-0.11024 0.12153,-0.15628 0.04639,-0.04607 0.09881,-0.08627 0.15719,-0.1205 0.11723,-0.06927 0.24315,-0.10389 0.37763,-0.10389 0.07806,0 0.15172,0.00935 0.22095,0.02803 0.06954,0.01876 0.1344,0.04693 0.19452,0.08444 0.05988,0.03721 0.11269,0.08043 0.15838,0.12954 0.04596,0.0494 0.08484,0.10486 0.11658,0.1662l0.00013 0.0004c0.01538,0.03076 0.02865,0.06143 0.03977,0.09196 0.01126,0.03095 0.0205,0.06198 0.02767,0.09306 0.01437,0.06181 0.02157,0.12718 0.02157,0.19557 0,0.09089 -0.01167,0.1748 -0.03498,0.25157 -0.02343,0.07711 -0.05856,0.14655 -0.10539,0.20813 -0.04596,0.06071 -0.09518,0.11249 -0.14758,0.15545 -0.05282,0.04329 -0.10865,0.07742 -0.16745,0.10248 -0.05784,0.02465 -0.11314,0.04316 -0.16585,0.05551 -0.05355,0.01253 -0.1045,0.01881 -0.15282,0.01881 -0.05447,0 -0.10741,-0.00581 -0.15876,-0.01744 -0.05108,-0.01157 -0.10034,-0.02897 -0.14774,-0.05218 -0.0469,-0.02297 -0.09138,-0.05023 -0.13337,-0.08183 -0.04222,-0.03179 -0.08184,-0.06779 -0.11882,-0.10809 -0.03722,-0.04057 -0.06918,-0.08259 -0.09581,-0.12615 -0.02676,-0.04376 -0.04812,-0.08902 -0.06405,-0.13584 -0.01581,-0.0465 -0.02766,-0.09523 -0.03551,-0.14627zm-0.28692 -0.15992c0,-0.07065 0.00732,-0.1388 0.02192,-0.20437 0.01461,-0.06553 0.03647,-0.12793 0.06558,-0.1871 0.02886,-0.05843 0.06303,-0.11392 0.10247,-0.16635 0.03942,-0.0524 0.08387,-0.10149 0.13332,-0.14717 0.04957,-0.04579 0.10169,-0.0862 0.15632,-0.12132 0.05441,-0.03497 0.11149,-0.06476 0.17117,-0.08941 0.03048,-0.01297 0.06093,-0.02451 0.09125,-0.03462 0.03034,-0.01016 0.05957,-0.0185 0.08766,-0.02505 0.05768,-0.01345 0.11895,-0.02019 0.18377,-0.02019 0.08633,0 0.16596,0.00711 0.23887,0.02131 0.03665,0.00713 0.07446,0.01728 0.11341,0.03043 0.0388,0.01309 0.07836,0.02901 0.11865,0.04775 0.08055,0.03515 0.15527,0.08134 0.22411,0.13867 0.06883,0.05732 0.13159,0.1256 0.18825,0.20493 0.03007,0.04206 0.05676,0.08542 0.08004,0.12999 0.02324,0.04452 0.04297,0.09016 0.05915,0.13681 0.01626,0.04685 0.02845,0.09617 0.03655,0.14799 0.00814,0.05212 0.01222,0.10625 0.01222,0.16246 0,0.04296 -0.00228,0.08511 -0.00681,0.12637l0 0.00013c-0.00452,0.04105 -0.01128,0.08067 -0.02026,0.11873 -0.00905,0.03864 -0.0216,0.07838 -0.03757,0.11917 -0.01568,0.04002 -0.03492,0.08141 -0.05771,0.12414 -0.04173,0.07958 -0.09328,0.15237 -0.15457,0.21825 -0.06104,0.06561 -0.1317,0.12434 -0.21197,0.17605 -0.08069,0.05214 -0.16576,0.09133 -0.25515,0.11747 -0.08954,0.0262 -0.18302,0.0393 -0.28043,0.0393 -0.08888,0 -0.17612,-0.0108 -0.2617,-0.03236 -0.08534,-0.02151 -0.16894,-0.0538 -0.25072,-0.09681 -0.08207,-0.04301 -0.15615,-0.09539 -0.22214,-0.15704 -0.06624,-0.06189 -0.12449,-0.13314 -0.17468,-0.21364 -0.05031,-0.08044 -0.08808,-0.16797 -0.11328,-0.26242 -0.02515,-0.09415 -0.03772,-0.19492 -0.03772,-0.3021zm0.0878 -0.18981c-0.01337,0.06 -0.02006,0.1233 -0.02006,0.18981 0,0.10155 0.01177,0.19649 0.03529,0.28465l0 0.00013c0.02339,0.0877 0.05853,0.16909 0.10539,0.24402 0.04708,0.07551 0.10153,0.14217 0.1633,0.19988 0.06186,0.05779 0.13102,0.10674 0.20745,0.14672l0.00013 0c0.07687,0.04043 0.15543,0.07077 0.23564,0.09099 0.07997,0.02015 0.16175,0.03024 0.2453,0.03024 0.09154,0 0.17877,-0.01213 0.26165,-0.03638 0.08297,-0.02427 0.16208,-0.06075 0.23728,-0.1094l0.00013 -0.00013c0.07548,-0.04862 0.14183,-0.10374 0.19901,-0.16521 0.0572,-0.06148 0.10531,-0.12942 0.14431,-0.20366l0.00014 -0.00013c0.02121,-0.03976 0.03933,-0.07883 0.05435,-0.11716 0.01473,-0.03761 0.0263,-0.07427 0.03465,-0.10991 0.00842,-0.03569 0.01475,-0.07268 0.01894,-0.11079 0.00417,-0.03795 0.00627,-0.07768 0.00627,-0.1191 0,-0.05384 -0.00373,-0.10454 -0.01116,-0.15214 -0.00749,-0.0479 -0.0187,-0.09334 -0.03363,-0.13635 -0.01503,-0.04333 -0.03344,-0.08587 -0.05519,-0.12755 -0.02163,-0.04141 -0.04673,-0.08212 -0.07528,-0.12205 -0.05339,-0.07476 -0.11218,-0.13881 -0.17633,-0.19223 -0.06397,-0.05327 -0.13352,-0.09621 -0.20863,-0.12889l-0.00066 -0.00026c-0.03858,-0.01795 -0.07587,-0.03299 -0.11179,-0.04511 -0.03579,-0.01208 -0.07069,-0.02144 -0.10467,-0.02805 -0.06833,-0.01331 -0.14373,-0.01997 -0.22617,-0.01997 -0.05991,0 -0.11607,0.00612 -0.16843,0.01833 -0.02693,0.00628 -0.05414,0.014 -0.08157,0.02315l-0.00014 0c-0.02738,0.00912 -0.0561,0.02006 -0.08609,0.03279l-0.0004 0.00013c-0.05572,0.02299 -0.10931,0.05098 -0.1607,0.08401 -0.05128,0.03296 -0.10032,0.071 -0.14706,0.11418 -0.04675,0.04318 -0.08847,0.08919 -0.12512,0.13791 -0.03677,0.04888 -0.06874,0.10084 -0.09587,0.15577 -0.02681,0.0545 -0.04692,0.1118 -0.06028,0.17176z"/>
   <path class="fil2" d="M7.75642 0.33309l0 1.6871c0.04968,-0.00076 0.08985,-0.07858 0.08985,-0.17464l0 -1.33779c0,-0.09609 -0.04017,-0.17391 -0.08985,-0.17467z"/>
  </g>
</svg>
