<svg xmlns="http://www.w3.org/2000/svg" xml:space="preserve" width="2cm" height="2cm" version="1.1" style="shape-rendering:geometricPrecision; text-rendering:geometricPrecision; image-rendering:optimizeQuality; fill-rule:evenodd; clip-rule:evenodd" viewBox="0 0 2000 2000" xmlns:xlink="http://www.w3.org/1999/xlink">
 <g>
  <path class="fil0" d="M664.91 493.74l667.78 0 164.18 164.18 0 685.66 -164.19 164.2 -685.66 0 -164.19 -164.19 0 -685.67 164.18 -164.18 17.9 0zm631.99 86.44l-614.1 0 -113.53 113.53 0 614.09 113.54 113.54 614.08 0 113.54 -113.54 0 -614.09 -113.53 -113.53zm393.8 236.3c-23.87,0 -43.22,-19.35 -43.22,-43.22 0,-23.87 19.35,-43.22 43.22,-43.22l258.55 0c23.87,0 43.22,19.35 43.22,43.22 0,23.87 -19.35,43.22 -43.22,43.22l-258.55 0zm0 468.53c-23.87,0 -43.22,-19.34 -43.22,-43.21 0,-23.87 19.35,-43.22 43.22,-43.22l258.55 0c23.87,0 43.22,19.35 43.22,43.22 0,23.87 -19.35,43.21 -43.22,43.21l-258.55 0zm0 -241.19c-23.87,0 -43.22,-19.34 -43.22,-43.21 0,-23.87 19.35,-43.22 43.22,-43.22l258.55 0c23.87,0 43.22,19.35 43.22,43.22 0,23.87 -19.35,43.21 -43.22,43.21l-258.55 0zm-1655.01 -227.34c-23.87,0 -43.22,-19.35 -43.22,-43.22 0,-23.87 19.35,-43.22 43.22,-43.22l258.55 0c23.87,0 43.22,19.35 43.22,43.22 0,23.87 -19.35,43.22 -43.22,43.22l-258.55 0zm0 468.53c-23.87,0 -43.22,-19.34 -43.22,-43.21 0,-23.87 19.35,-43.22 43.22,-43.22l258.55 0c23.87,0 43.22,19.35 43.22,43.22 0,23.87 -19.35,43.21 -43.22,43.21l-258.55 0zm0 -241.19c-23.87,0 -43.22,-19.34 -43.22,-43.21 0,-23.87 19.35,-43.22 43.22,-43.22l258.55 0c23.87,0 43.22,19.35 43.22,43.22 0,23.87 -19.35,43.21 -43.22,43.21l-258.55 0zm747.89 126.73l-171.22 -171.22 177.48 -177.48 61.11 61.11 -116.37 116.37 110.11 110.11 -61.11 61.11zm353.39 -61.11l110.11 -110.11 -116.37 -116.37 61.11 -61.11 177.49 177.48 -171.22 171.22 -61.12 -61.11zm-247.04 84.91l124.62 -410.59 90.07 -0.34 -124.74 411.02 -89.95 -0.09zm-88.51 -885.05c0,23.87 -19.35,43.22 -43.22,43.22 -23.87,0 -43.22,-19.35 -43.22,-43.22l0 -258.55c0,-23.87 19.35,-43.22 43.22,-43.22 23.87,0 43.22,19.35 43.22,43.22l0 258.55zm468.54 0c0,23.87 -19.35,43.22 -43.22,43.22 -23.87,0 -43.22,-19.35 -43.22,-43.22l0 -258.55c0,-23.87 19.35,-43.22 43.22,-43.22 23.87,0 43.22,19.35 43.22,43.22l0 258.55zm-241.19 0c0,23.87 -19.35,43.22 -43.22,43.22 -23.87,0 -43.22,-19.35 -43.22,-43.22l0 -258.55c0,-23.87 19.35,-43.22 43.22,-43.22 23.87,0 43.22,19.35 43.22,43.22l0 258.55zm-227.35 1655.01c0,23.87 -19.35,43.22 -43.22,43.22 -23.87,0 -43.22,-19.35 -43.22,-43.22l0 -258.55c0,-23.87 19.35,-43.22 43.22,-43.22 23.87,0 43.22,19.35 43.22,43.22l0 258.55zm468.54 0c0,23.87 -19.35,43.22 -43.22,43.22 -23.87,0 -43.22,-19.35 -43.22,-43.22l0 -258.55c0,-23.87 19.35,-43.22 43.22,-43.22 23.87,0 43.22,19.35 43.22,43.22l0 258.55zm-241.19 0c0,23.87 -19.35,43.22 -43.22,43.22 -23.87,0 -43.22,-19.35 -43.22,-43.22l0 -258.55c0,-23.87 19.35,-43.22 43.22,-43.22 23.87,0 43.22,19.35 43.22,43.22l0 258.55z"/>
 </g>
</svg>
