<?xml version="1.0" encoding="UTF-8"?>
<!DOCTYPE svg PUBLIC "-//W3C//DTD SVG 1.1//EN" "http://www.w3.org/Graphics/SVG/1.1/DTD/svg11.dtd">
<!-- Creator: CorelDRAW X8 -->
<svg xmlns="http://www.w3.org/2000/svg" xml:space="preserve" width="62.496mm" height="11.584mm" version="1.1" style="shape-rendering:geometricPrecision; text-rendering:geometricPrecision; image-rendering:optimizeQuality; fill-rule:evenodd; clip-rule:evenodd"
viewBox="0 0 6249600 1158400"
 xmlns:xlink="http://www.w3.org/1999/xlink">
 <defs>
  <style type="text/css">
   <![CDATA[
    .fil0 {fill:#0F609F;fill-rule:nonzero}
   ]]>
  </style>
 </defs>
 <g id="Слой_x0020_1">
  <metadata id="CorelCorpID_0Corel-Layer"/>
  <g id="_2448282606032">
   <path class="fil0" d="M156590 627820c-24950,39630 -77300,51530 -116940,26580 -39630,-24950 -51520,-77300 -26570,-116930 112670,-179150 250630,-310670 404030,-399000 164820,-94880 346280,-139160 532530,-138440 188870,730 367710,42550 531670,134740 152750,85860 291770,214730 412960,393950 26230,38880 15980,91700 -22920,117920 -38890,26250 -91700,15980 -117930,-22910 -105720,-156330 -225190,-267730 -355180,-340800 -138070,-77630 -288990,-112850 -448600,-113470 -157470,-600 -310210,36440 -448140,115850 -129740,74690 -247420,187520 -344910,342510zm1204130 -50720c0,-46960 38090,-85040 85050,-85040 46970,0 85040,38080 85040,85040 0,160500 -65060,305830 -170240,411020 -105190,105190 -250520,170250 -411010,170250 -160500,0 -305820,-65060 -411010,-170250 -105200,-105190 -170250,-250520 -170250,-411020 0,-46960 38070,-85040 85050,-85040 46950,0 85030,38080 85030,85040 0,113560 46020,216360 120440,290760 74390,74410 177190,120420 290740,120420 113540,0 216340,-46010 290740,-120420 74410,-74400 120420,-177200 120420,-290760zm-367210 -43940c-11240,-11240 -26780,-18190 -43950,-18190 -17170,0 -32720,6950 -43960,18190 -11230,11240 -18190,26770 -18190,43940 0,17180 6960,32730 18190,43960 11240,11250 26790,18200 43960,18200 17170,0 32710,-6950 43950,-18200 11240,-11230 18200,-26780 18200,-43960 0,-17170 -6960,-32700 -18200,-43940zm-43950 -188300c64110,0 122170,26010 164220,68030 42020,42040 68020,100100 68020,164210 0,64130 -26000,122200 -68020,164230 -42050,42030 -100110,68020 -164220,68020 -64130,0 -122190,-25990 -164220,-68020 -42030,-42030 -68030,-100100 -68030,-164230 0,-64110 26000,-122170 68030,-164210 42030,-42020 100090,-68030 164220,-68030z"/>
   <path class="fil0" d="M2618090 550810l-98110 -31060c-35290,-11290 -60470,-28350 -75520,-51170 -15060,-22820 -22590,-52820 -22590,-89990 0,-53180 12350,-88230 37060,-105170 24700,-16940 68110,-25410 130220,-25410 59760,0 110820,5410 153170,16230l-5650 62820c-53640,-1880 -101870,-2830 -144700,-2830 -32460,0 -54110,3180 -64930,9540 -10820,6350 -16240,21760 -16240,46230 0,20230 3890,34470 11650,42700 7760,8240 22000,15650 42700,22230l93880 28940c37170,11760 63170,29060 77990,51880 14830,22820 22240,52820 22240,89990 0,53650 -12710,89760 -38120,108350 -25410,18590 -70350,27880 -134810,27880 -53640,0 -106350,-5180 -158110,-15530l5650 -64930c82350,1880 133870,2820 154580,2820 32460,0 54110,-3770 64930,-11300 10830,-7520 16240,-23520 16240,-47990 0,-20710 -3650,-35060 -10940,-43060 -7300,-8000 -20830,-15060 -40590,-21170zm532900 -153170l0 345860 -67760 0 -6350 -46580c-48940,37170 -97170,55760 -144690,55760 -64000,0 -96000,-32000 -96000,-96000l0 -259040 86110 0 0 233630c-470,18350 2360,31060 8470,38120 6120,7060 17420,10580 33880,10580 23530,0 57180,-12700 100940,-38110l0 -244220 85400 0zm166580 0l5650 51530c15990,-17880 37290,-32470 63870,-43760 26590,-11300 52590,-16940 78000,-16940 78580,0 117870,61640 117870,184920 0,65410 -10700,111530 -32110,138350 -21410,26820 -54940,40230 -100580,40230 -46590,0 -86590,-11290 -120000,-33880 1890,24000 2590,48000 2120,71990l0 91060 -85400 0 0 -483500 70580 0zm14820 104460l0 165170c44230,9880 75050,14820 92470,14820 26350,0 44580,-7170 54700,-21530 10110,-14350 15170,-43640 15170,-87870 0,-43290 -4590,-73050 -13760,-89290 -9180,-16230 -25060,-24350 -47640,-24350 -15530,0 -30710,3410 -45530,10230 -14820,6830 -33290,17770 -55410,32820zm548430 104470l-141160 0c3290,30110 11760,50230 25410,60350 13640,10110 35990,15170 67050,15170 35290,0 76700,-2820 124230,-8470l7760 55060c-32470,15520 -79990,23290 -142580,23290 -62580,0 -107050,-13880 -133400,-41640 -26350,-27770 -39530,-74590 -39530,-140460 0,-67290 12940,-114470 38820,-141520 25890,-27060 68710,-40590 128470,-40590 55050,0 95050,10000 119990,30000 24940,20000 37410,49990 37410,89990 0,65880 -30830,98820 -92470,98820zm-142580 -60000l118580 0c20710,0 31060,-13410 31060,-40230 0,-18820 -4940,-32000 -14820,-39530 -9880,-7520 -27760,-11290 -53640,-11290 -30120,0 -50940,6230 -62470,18710 -11530,12460 -17760,36580 -18710,72340zm547020 -158810l-9170 80470 -24700 0c-24480,0 -62590,10350 -114350,31050l0 244220 -86110 0 0 -345860 67050 0 7770 50820c49410,-40470 96930,-60700 142570,-60700l16940 0zm440440 -131280l-137640 462310c-4700,16470 -15520,24710 -32460,24710l-83290 0c-7530,0 -14240,-2240 -20120,-6710 -5880,-4470 -9760,-10470 -11640,-18000l-138350 -462310 91060 0 99520 365620c1410,5640 3530,14700 6350,27170 2820,12470 4940,21530 6350,27180l17650 0c2820,-15060 7290,-33180 13410,-54350l98110 -365620 91050 0zm81170 -9180l39530 0c16470,0 24700,8230 24700,24700l0 38820c0,16470 -8230,24710 -24700,24710l-39530 0c-16470,0 -24700,-8240 -24700,-24710l0 -38820c0,-16470 8230,-24700 24700,-24700zm62820 496200l-85400 0 0 -345860 85400 0 0 345860zm253390 -131290l-91050 -24700c-30120,-8470 -51170,-20470 -63170,-36000 -12000,-15520 -18000,-37410 -18000,-65640 0,-37170 10590,-62820 31760,-76930 21180,-14120 57650,-21180 109410,-21180 56460,940 107520,5180 153160,12700l-6350 59300c-58350,-1890 -102350,-2830 -131990,-2830 -31060,0 -51060,1530 -60000,4590 -8940,3060 -13410,11410 -13410,25060 0,3290 360,6350 1060,9170 710,2830 1300,5180 1760,7060 480,1880 1770,3650 3890,5290 2110,1650 3640,2940 4590,3890 940,940 3290,2110 7060,3530 3760,1410 6350,2350 7760,2820 1410,470 4700,1410 9880,2820 5180,1410 8940,2360 11290,2830l93170 25410c29650,8470 50820,19880 63530,34230 12700,14350 19060,36110 19060,65290 0,40470 -11530,67640 -34590,81520 -23060,13880 -63060,20820 -119990,20820 -51760,0 -100000,-3760 -144700,-11290l5650 -60000c24470,1890 63760,2830 117870,2830 37180,0 62000,-2120 74470,-6350 12470,-4240 18700,-13180 18700,-26830 0,-2820 -230,-5410 -700,-7760 -470,-2350 -1180,-4470 -2120,-6350 -940,-1890 -1880,-3530 -2820,-4940 -940,-1420 -2590,-2830 -4950,-4240 -2350,-1410 -4230,-2470 -5640,-3180 -1410,-700 -3880,-1640 -7410,-2820 -3530,-1170 -6120,-2000 -7770,-2470 -1640,-470 -4820,-1410 -9530,-2820 -4700,-1410 -7990,-2360 -9880,-2830zm235750 -364910l39530 0c16470,0 24700,8230 24700,24700l0 38820c0,16470 -8230,24710 -24700,24710l-39530 0c-16470,0 -24700,-8240 -24700,-24710l0 -38820c0,-16470 8230,-24700 24700,-24700zm62820 496200l-85410 0 0 -345860 85410 0 0 345860zm254800 -355740c62120,0 106000,13880 131640,41650 25650,27760 38470,74810 38470,141160 0,66350 -12820,113290 -38470,140810 -25640,27530 -69520,41300 -131640,41300 -62580,0 -106810,-13770 -132690,-41300 -25880,-27520 -38820,-74460 -38820,-140810 0,-66350 12940,-113400 38820,-141160 25880,-27770 70110,-41650 132690,-41650zm0 68470c-32000,0 -53640,7880 -64930,23640 -11300,15770 -16940,46000 -16940,90700 0,44230 5640,74230 16940,89990 11290,15770 32930,23650 64930,23650 31060,0 52350,-7880 63880,-23650 11530,-15760 17290,-45760 17290,-89990 0,-44700 -5760,-74930 -17290,-90700 -11530,-15760 -32820,-23640 -63880,-23640zm322570 -58590l5640 50820c53650,-40470 103530,-60700 149640,-60700 30590,0 54120,8230 70590,24700 16470,16470 24700,40240 24700,71290l0 259750 -86110 0 0 -233630c0,-19290 -2590,-32350 -7770,-39180 -5170,-6820 -14820,-10230 -28940,-10230 -16000,0 -32350,3300 -49050,9880 -16710,6590 -38230,17410 -64580,32470l0 240690 -86120 0 0 -345860 72000 0z"/>
  </g>
 </g>
</svg>
