<svg xmlns="http://www.w3.org/2000/svg" xml:space="preserve" width="9.1048cm" height="2.0198cm" version="1.1" style="fill:#008C99;fill-rule:nonzero; shape-rendering:geometricPrecision; text-rendering:geometricPrecision; image-rendering:optimizeQuality; fill-rule:evenodd; clip-rule:evenodd" viewBox="0 0 9.1048 2.0198" xmlns:xlink="http://www.w3.org/1999/xlink">
 <g>
  <path class="fil0" d="M3.29607 0.24832l0 1.73906 -0.26141 0 0 -1.73906 -0.39899 0 0 -0.24214 1.06214 0 0 0.24214 -0.40174 0zm0.67141 1.73906l-0.2394 0 0 -1.41161 0.22289 0 0 0.18161c0.09906,-0.13758 0.21188,-0.20637 0.33845,-0.20637l0 0.2504c-0.21463,0 -0.32194,0.13254 -0.32194,0.39716l0 0.78881zm0.68792 -0.71268c0,0.14125 0.04861,0.26278 0.14584,0.36459 0.09722,0.10182 0.21646,0.15272 0.35772,0.15272 0.12841,0 0.24123,-0.05182 0.33845,-0.15547 0.09723,-0.10364 0.14584,-0.21967 0.14584,-0.34808 0,-0.13575 -0.0477,-0.25591 -0.14309,-0.36047 -0.09539,-0.10457 -0.21096,-0.15685 -0.34671,-0.15685 -0.13575,0 -0.25269,0.04999 -0.35084,0.14997 -0.09814,0.09998 -0.14721,0.21784 -0.14721,0.35359zm1.21899 0.71268l-0.23114 0 0 -0.19812c-0.15042,0.15226 -0.31644,0.22839 -0.49805,0.22839 -0.2128,0 -0.38936,-0.07063 -0.5297,-0.21188 -0.14033,-0.14125 -0.2105,-0.31828 -0.2105,-0.53107 0,-0.20363 0.06971,-0.37698 0.20913,-0.52007 0.13941,-0.14309 0.31093,-0.21463 0.51456,-0.21463 0.19261,0 0.36047,0.07338 0.50355,0.22014l0 -0.18437 0.24215 0 0 1.41161zm1.37033 -0.47054l0.26416 0c-0.12107,0.33938 -0.34946,0.50906 -0.68516,0.50906 -0.21097,0 -0.38524,-0.07108 -0.52282,-0.21325 -0.13758,-0.14217 -0.20638,-0.31874 -0.20638,-0.5297 0,-0.21463 0.07017,-0.39257 0.21051,-0.53382 0.14033,-0.14125 0.3169,-0.21188 0.52969,-0.21188 0.16327,0 0.30314,0.04357 0.41963,0.1307 0.11649,0.08714 0.20133,0.20867 0.25453,0.3646l-0.26416 0c-0.07888,-0.17611 -0.22288,-0.26416 -0.43201,-0.26416 -0.13575,0 -0.24765,0.05091 -0.3357,0.15272 -0.08806,0.10181 -0.13208,0.22151 -0.13208,0.35909 0,0.14125 0.04402,0.26141 0.13208,0.36047 0.09172,0.10456 0.20729,0.15684 0.34671,0.15684 0.21279,0 0.35313,-0.09355 0.421,-0.28067zm1.13919 -0.7457c-0.11741,0 -0.21784,0.0344 -0.30131,0.10365 -0.08347,0.06925 -0.14171,0.16143 -0.17473,0.27608l0.93557 0c-0.07521,-0.25315 -0.22839,-0.37973 -0.45953,-0.37973zm0.40174 0.78148l0.26967 0c-0.13392,0.31552 -0.35955,0.47328 -0.67691,0.47328 -0.20179,0 -0.37377,-0.07337 -0.51594,-0.22013 -0.14217,-0.14676 -0.21326,-0.32195 -0.21326,-0.52557 0,-0.20362 0.07063,-0.37881 0.21188,-0.52557 0.14125,-0.14675 0.31278,-0.22013 0.51456,-0.22013 0.16144,0 0.30085,0.04173 0.41826,0.1252 0.1174,0.08347 0.2027,0.20133 0.2559,0.35359 0.03486,0.09906 0.05229,0.21738 0.05229,0.35496l-1.19973 0c0.02201,0.12291 0.07659,0.22472 0.16372,0.30544 0.08714,0.08072 0.19124,0.12107 0.31232,0.12107 0.17794,0 0.31369,-0.08071 0.40724,-0.24214zm-8.10262 -0.75044c0.00293,-0.00323 0.0059,-0.00707 0.00817,-0.01015 0.00659,-0.0101 0.01042,-0.02218 0.01042,-0.03515 0,-0.01781 -0.00721,-0.03392 -0.01887,-0.04559 -0.01166,-0.01165 -0.02777,-0.01887 -0.04558,-0.01887 -0.0178,0 -0.03392,0.00722 -0.04558,0.01887 -0.01167,0.01167 -0.01888,0.02778 -0.01888,0.04559 0,0.0178 0.00721,0.03392 0.01888,0.04558 0.01166,0.01166 0.02778,0.01888 0.04558,0.01888 0.01731,0 0.03369,-0.00686 0.04586,-0.01916zm0.52559 0.27158c-0.01167,-0.01166 -0.02778,-0.01888 -0.04558,-0.01888 -0.01781,0 -0.03392,0.00722 -0.04559,0.01888 -0.01166,0.01166 -0.01887,0.02778 -0.01887,0.04558 0,0.01781 0.00721,0.03393 0.01887,0.04558 0.01167,0.01166 0.02778,0.01888 0.04559,0.01888 0.0178,0 0.03391,-0.00722 0.04558,-0.01888 0.01166,-0.01165 0.01888,-0.02777 0.01888,-0.04558 0,-0.0178 -0.00722,-0.03392 -0.01888,-0.04558zm0.60865 -0.37076c-0.01167,-0.01166 -0.02778,-0.01887 -0.04559,-0.01887 -0.0178,0 -0.03391,0.00721 -0.04558,0.01887 -0.01166,0.01166 -0.01887,0.02778 -0.01887,0.04558 0,0.01781 0.00721,0.03392 0.01887,0.04558 0.01167,0.01166 0.02778,0.01888 0.04558,0.01888 0.01781,0 0.03392,-0.00722 0.04559,-0.01888 0.01166,-0.01166 0.01887,-0.02777 0.01887,-0.04558 0,-0.0178 -0.00721,-0.03392 -0.01887,-0.04558zm0.33435 -0.50165l-1.92992 0c-0.00401,0 -0.00772,0.00076 -0.01097,0.00211 -0.00341,0.00142 -0.00666,0.00366 -0.0095,0.00651l-0.0002 0c-0.00263,0.00263 -0.0048,0.00586 -0.00631,0.00949 -0.00135,0.00325 -0.00211,0.00697 -0.00211,0.01097l0 0.72884 0.23749 -0.17495c-0.00131,-0.00956 -0.00198,-0.01875 -0.00198,-0.02744 0,-0.02813 0.00568,-0.05516 0.01595,-0.07996 0.0108,-0.0258 0.02627,-0.04883 0.04529,-0.06785 0.01902,-0.01902 0.04205,-0.03449 0.06788,-0.04522 0.02477,-0.01034 0.0518,-0.01602 0.07993,-0.01602 0.02813,0 0.05516,0.00568 0.07996,0.01595 0.02581,0.0108 0.04883,0.02627 0.06785,0.04529 0.01901,0.01901 0.03448,0.04203 0.04521,0.06787 0.01035,0.02477 0.01603,0.05181 0.01603,0.07994 0,0.01039 -0.00082,0.02078 -0.00237,0.03107l0.22602 0.14434c0.00902,-0.0045 0.01842,-0.00837 0.02814,-0.01157 0.02064,-0.00676 0.04251,-0.01043 0.06503,-0.01043 0.02642,0 0.05196,0.00508 0.07568,0.01432 0.01113,0.00433 0.02178,0.00957 0.03185,0.01562l0.29298 -0.21113c0.00199,-0.02113 0.00716,-0.04146 0.01504,-0.06048 0.01071,-0.02558 0.02618,-0.04855 0.04528,-0.06766l0.0002 -0.00019c0.01911,-0.0191 0.04208,-0.03458 0.06769,-0.04521 0.02476,-0.01035 0.0518,-0.01603 0.07992,-0.01603 0.02812,0 0.05516,0.00568 0.07996,0.01596 0.02558,0.0107 0.04854,0.02617 0.06766,0.04528l0.0002 0.00019c0.0191,0.01911 0.03457,0.04208 0.04521,0.06769 0.01034,0.02477 0.01602,0.0518 0.01602,0.07993 0,0.01236 -0.00111,0.02458 -0.00323,0.03654l-0.00061 0.00332 0.20382 0.20483 0 -0.76284c0,-0.004 -0.00076,-0.00772 -0.00211,-0.01097 -0.00151,-0.00363 -0.00368,-0.00686 -0.00631,-0.00949l-0.0002 0c-0.00284,-0.00285 -0.00609,-0.00509 -0.0095,-0.00651 -0.00325,-0.00135 -0.00696,-0.00211 -0.01097,-0.00211zm0 1.23464c0.00401,0 0.00772,-0.00075 0.01097,-0.00211 0.00341,-0.00142 0.00666,-0.00366 0.0095,-0.00651 0.00285,-0.00284 0.00509,-0.00609 0.00651,-0.0095 0.00135,-0.00325 0.00211,-0.00696 0.00211,-0.01097l0 -0.1376 -0.32687 -0.3285c-0.00623,0.00268 -0.01261,0.00506 -0.01912,0.00711 -0.01997,0.00631 -0.04115,0.00973 -0.06304,0.00973 -0.02813,0 -0.05516,-0.00568 -0.07996,-0.01596 -0.01811,-0.0076 -0.03486,-0.01747 -0.04982,-0.02927l-0.27021 0.19472c0.00026,0.00419 0.0004,0.00826 0.0004,0.01221 0,0.02813 -0.00568,0.05516 -0.01595,0.07996 -0.0108,0.02581 -0.02628,0.04883 -0.0453,0.06785 -0.03783,0.03783 -0.0901,0.06124 -0.1478,0.06124 -0.02813,0 -0.05516,-0.00568 -0.07996,-0.01595 -0.02581,-0.0108 -0.04884,-0.02627 -0.06786,-0.04529l0 -0.00019c-0.01911,-0.01912 -0.03457,-0.04208 -0.04521,-0.06769 -0.01035,-0.02478 -0.01602,-0.0518 -0.01602,-0.07993 0,-0.00956 0.00071,-0.01926 0.0021,-0.029l-0.22772 -0.14544c-0.00873,0.00422 -0.01786,0.00787 -0.02733,0.0109 -0.02046,0.00658 -0.04196,0.01013 -0.06387,0.01013 -0.02338,0 -0.04605,-0.00395 -0.06736,-0.01121 -0.00932,-0.00318 -0.01836,-0.00701 -0.02705,-0.01144l-0.35015 0.25795 0 0.20567c0,0.00401 0.00076,0.00772 0.00211,0.01097 0.00142,0.00341 0.00366,0.00666 0.00651,0.0095 0.00285,0.00286 0.00609,0.00509 0.0095,0.00651 0.00325,0.00136 0.00696,0.00211 0.01097,0.00211l1.92992 0zm-0.81666 0.35535l-0.04421 -0.16009 -0.25432 0 -0.04421 0.16009 0.34274 0zm0.2073 0.15432c-0.00627,0.00885 -0.01423,0.01677 -0.02354,0.02328 -0.0089,0.00625 -0.01894,0.0111 -0.02981,0.0141 -0.00548,0.00151 -0.01089,0.00251 -0.01613,0.00305l-0.0002 0c-0.00447,0.00045 -0.00879,0.00059 -0.01289,0.00047l-0.59542 0.00004c-0.02696,0 -0.05136,-0.01094 -0.06903,-0.0286l0 -0.00019c-0.01766,-0.01769 -0.0286,-0.04204 -0.0286,-0.06884 0,-0.00566 0.00053,-0.01133 0.00151,-0.01692 0.00082,-0.00472 0.00212,-0.00957 0.00382,-0.0145l0.0625 -0.2263 -0.61277 0c-0.03015,0 -0.05911,-0.00611 -0.08568,-0.01715 -0.02755,-0.01144 -0.05227,-0.02811 -0.07284,-0.04868 -0.04061,-0.0406 -0.06583,-0.09673 -0.06583,-0.15852l0 -1.17647c0,-0.03014 0.00611,-0.05911 0.01715,-0.08567 0.01144,-0.02755 0.02812,-0.05228 0.04868,-0.07284 0.04061,-0.04061 0.09673,-0.06583 0.15852,-0.06583l1.92992 0c0.03015,0 0.05911,0.00611 0.08568,0.01715 0.02755,0.01144 0.05227,0.02811 0.07284,0.04868 0.02056,0.02056 0.03724,0.04529 0.04868,0.07284 0.01104,0.02656 0.01715,0.05553 0.01715,0.08567l0 1.17647c0,0.03015 -0.00611,0.05911 -0.01715,0.08568 -0.01144,0.02755 -0.02811,0.05227 -0.04868,0.07284 -0.04061,0.04061 -0.09673,0.06583 -0.15852,0.06583l-0.65891 0 0.06265 0.22684c0.00144,0.0043 0.0026,0.00874 0.00343,0.01322 0.0012,0.00629 0.00181,0.01221 0.00181,0.01766 0,0.01007 -0.0017,0.02012 -0.00483,0.02984 -0.00309,0.00963 -0.00771,0.01868 -0.01351,0.02685z"/>
 </g>
</svg>
